<?xml version="1.0" encoding="UTF-8"?>
<!-- Generator: visioncortex VTracer 0.6.3 -->
<svg version="1.1" xmlns="http://www.w3.org/2000/svg" width="1280" height="1280">
<path d="M0 0 C3 1 3 1 4.13 2.78 C5.02 5.05 5.48 7.1 5.88 9.5 C7.24 16.7 8.94 24.45 13.25 30.5 C15 33 15 33 15 37 C15.66 37 16.32 37 17 37 C18.15 38.64 19.22 40.34 20.25 42.06 C22.45 45.64 24.64 48.93 27.44 52.06 C30 55 30 55 30 57 C30.66 57 31.32 57 32 57 C33.62 58.38 33.62 58.38 35 60 C35 60.66 35 61.32 35 62 C35.58 62.27 36.15 62.54 36.75 62.81 C39.06 64.03 41.02 65.3 43 67 C43 67.66 43 68.32 43 69 C44.18 69.46 44.18 69.46 45.38 69.94 C48 71 48 71 50 72 C50 72.66 50 73.32 50 74 C50.56 74.1 51.11 74.21 51.69 74.31 C54.44 75.13 56.59 76.46 59 78 C58.58 82.9 56.51 84.89 53 88.19 C49.55 91.26 49.55 91.26 47 95 C46.34 95 45.68 95 45 95 C44.73 95.58 44.46 96.15 44.19 96.75 C42.97 99.06 41.7 101.02 40 103 C39.34 103 38.68 103 38 103 C37.75 103.54 37.5 104.07 37.25 104.62 C35.69 107.58 33.97 110.3 32 113 C31.34 113 30.68 113 30 113 C29.74 113.72 29.48 114.45 29.21 115.2 C27.97 118.07 26.51 120.34 24.69 122.88 C23.75 124.19 23.75 124.19 22.8 125.53 C21.76 126.96 20.71 128.38 19.64 129.78 C16.29 134.22 13.95 138.98 11.53 143.98 C10.18 146.64 8.73 149.11 7.12 151.62 C0.61 162.24 -3.95 174.26 -8 186 C-8.52 187.38 -9.04 188.75 -9.56 190.12 C-10.04 191.42 -10.52 192.71 -11 194 C-11.23 194.63 -11.47 195.25 -11.71 195.89 C-14.27 203.08 -15.84 210.52 -17.53 217.94 C-17.94 219.74 -18.38 221.53 -18.82 223.32 C-19.6 226.54 -20.31 229.76 -21 233 C-21.26 234.2 -21.52 235.4 -21.78 236.64 C-24.61 251.19 -24.46 265.83 -24.39 280.59 C-24.37 284.26 -24.38 287.94 -24.4 291.61 C-24.48 311.46 -23.09 330.03 -17.97 349.28 C-17.05 352.8 -16.26 356.32 -15.5 359.88 C-14.41 364.7 -12.93 369.14 -10.96 373.68 C-9.83 376.41 -8.93 379.19 -8 382 C-2.55 397.53 4.27 412.7 13.75 426.21 C16.49 430.13 19.23 434.21 20 439 C20.66 439 21.32 439 22 439 C23.26 440.65 23.26 440.65 24.69 442.94 C27.44 447.23 30.46 451.2 33.68 455.15 C35 457 35 457 35 459 C35.99 459.33 36.98 459.66 38 460 C39.39 461.57 40.72 463.21 42 464.88 C46.29 470.28 50.93 475.02 55.91 479.79 C58 482 58 482 58 484 C58.56 484.25 59.11 484.5 59.69 484.75 C62.42 486.23 64.68 487.93 67 490 C67 490.66 67 491.32 67 492 C67.58 492.27 68.15 492.54 68.75 492.81 C71.06 494.03 73.02 495.3 75 497 C75 497.66 75 498.32 75 499 C75.8 499.37 75.8 499.37 76.62 499.75 C79.58 501.31 82.3 503.03 85 505 C85 505.66 85 506.32 85 507 C85.78 507.31 86.57 507.62 87.38 507.94 C90 509 90 509 92 510 C92 510.66 92 511.32 92 512 C92.72 512.26 93.44 512.51 94.18 512.78 C97.16 514.07 99.5 515.64 102.12 517.56 C104.84 519.54 106.8 520.93 110 522 C110 522.66 110 523.32 110 524 C110.52 524.09 111.05 524.18 111.59 524.27 C114.87 525.27 117.64 527 120.56 528.75 C126.56 532.25 132.61 535.27 139 538 C140.1 538.48 141.2 538.96 142.34 539.46 C149.25 542.47 156.2 545.28 163.26 547.92 C166 549 166 549 167.93 550.02 C170.86 551.41 173.87 552.15 177 553 C178.39 553.39 179.78 553.79 181.16 554.18 C185.05 555.28 188.94 556.35 192.84 557.41 C194.62 557.9 196.4 558.39 198.18 558.89 C218.14 564 239.85 565.2 260.38 565.19 C261.68 565.19 262.98 565.19 264.32 565.19 C275.96 565.11 287.44 564.36 299 563 C300.25 562.86 301.49 562.71 302.78 562.56 C311.05 561.44 318.97 559.24 327 557 C328.35 556.66 329.71 556.32 331.06 556 C339.54 553.89 347.92 551.75 355.82 547.98 C358.18 546.92 360.55 546.12 363 545.31 C371.09 542.46 378.5 538.11 386 534 C384.91 533.76 383.83 533.52 382.71 533.27 C381.27 532.93 379.82 532.59 378.38 532.25 C377.66 532.09 376.95 531.94 376.21 531.77 C370.64 530.44 366.21 528.5 362.32 524.1 C358.52 517.63 357.67 511.4 359 504 C361.3 499.18 364.11 496.16 369 494 C369 493.34 369 492.68 369 492 C373.71 489.59 378.02 489.72 383.18 489.74 C384.57 489.73 384.57 489.73 385.99 489.73 C389.1 489.72 392.2 489.72 395.31 489.73 C397.54 489.72 399.77 489.72 401.99 489.71 C408.04 489.7 414.1 489.7 420.15 489.7 C425.2 489.7 430.25 489.69 435.3 489.69 C447.89 489.68 460.48 489.68 473.08 489.69 C484.01 489.69 494.94 489.68 505.88 489.66 C517.11 489.64 528.34 489.63 539.57 489.64 C545.87 489.64 552.18 489.64 558.48 489.62 C564.41 489.61 570.33 489.61 576.26 489.62 C578.44 489.63 580.61 489.62 582.79 489.62 C585.76 489.61 588.73 489.61 591.69 489.63 C592.56 489.62 593.42 489.61 594.31 489.6 C600.72 489.66 604.64 491.43 610 495 C610 495.66 610 496.32 610 497 C610.66 497 611.32 497 612 497 C615.45 501.32 616.69 506.56 617 512 C616.11 516.69 614.16 520.78 612 525 C611.34 525 610.68 525 610 525 C609.67 525.99 609.34 526.98 609 528 C601.72 533.69 591.97 533.28 583.18 533.2 C582.09 533.19 580.99 533.19 579.86 533.19 C576.39 533.18 572.91 533.15 569.44 533.12 C567.07 533.11 564.7 533.11 562.33 533.1 C556.56 533.08 550.78 533.04 545 533 C545 533.66 545 534.32 545 535 C543.62 536.62 543.62 536.62 542 538 C541.34 538 540.68 538 540 538 C539.77 538.54 539.55 539.07 539.31 539.62 C536.98 543.85 533.68 547.85 530 551 C529.34 551 528.68 551 528 551 C528 551.66 528 552.32 528 553 C526.62 554.62 526.62 554.62 525 556 C524.34 556 523.68 556 523 556 C523 556.66 523 557.32 523 558 C521.36 559.62 521.36 559.62 519.19 561.44 C516.18 563.97 516.18 563.97 513.36 566.72 C512 568 512 568 510 568 C510 568.66 510 569.32 510 570 C508.12 571.74 508.12 571.74 505.44 573.88 C504.43 574.68 503.41 575.49 502.37 576.32 C501.82 576.76 501.27 577.19 500.71 577.64 C498.99 579.01 497.29 580.4 495.6 581.8 C485.82 589.84 475.55 597.01 465 604 C464.33 604.45 463.66 604.89 462.97 605.35 C455.51 610.29 447.93 614.84 440 619 C438.64 619.73 437.28 620.46 435.93 621.19 C425.76 626.65 415.54 631.69 404.79 635.9 C402.68 636.73 400.59 637.58 398.5 638.44 C390.44 641.75 382.38 644.6 374 647 C373.22 647.23 372.44 647.45 371.64 647.69 C370.09 648.13 368.55 648.57 367 649 C367.33 650.98 367.66 652.96 368 655 C368.66 655 369.32 655 370 655 C371.29 656.46 371.29 656.46 372.62 658.38 C373.29 659.31 373.29 659.31 373.98 660.27 C375 662 375 662 375 664 C375.66 664 376.32 664 377 664 C378.51 665.68 378.51 665.68 380.12 667.88 C380.66 668.59 381.2 669.31 381.76 670.05 C383 672 383 672 383 674 C383.66 674 384.32 674 385 674 C388 677.46 388 677.46 388 680 C388.66 680 389.32 680 390 680 C391.29 681.46 391.29 681.46 392.62 683.38 C393.29 684.31 393.29 684.31 393.98 685.27 C395 687 395 687 395 689 C395.66 689 396.32 689 397 689 C398.51 690.68 398.51 690.68 400.12 692.88 C400.66 693.59 401.2 694.31 401.76 695.05 C403 697 403 697 403 699 C403.66 699 404.32 699 405 699 C408 702.46 408 702.46 408 705 C408.66 705 409.32 705 410 705 C411.29 706.46 411.29 706.46 412.62 708.38 C413.29 709.31 413.29 709.31 413.98 710.27 C415 712 415 712 415 714 C415.66 714 416.32 714 417 714 C417.33 714.66 417.66 715.32 418 716 C418.91 716 418.91 716 419.84 716.01 C434.71 716.07 449.58 716.14 464.45 716.24 C471.64 716.28 478.83 716.32 486.02 716.35 C492.3 716.37 498.57 716.4 504.85 716.45 C508.16 716.47 511.48 716.49 514.79 716.5 C538.91 716.56 561.8 716.78 580 734.81 C580.99 735.9 580.99 735.9 582 737 C582.9 737.84 582.9 737.84 583.81 738.69 C585 740 585 740 585 742 C585.66 742 586.32 742 587 742 C599.38 757.1 598.68 775.65 598 794 C599.29 793.98 600.58 793.96 601.91 793.94 C606.73 793.86 611.54 793.82 616.36 793.78 C618.44 793.76 620.52 793.73 622.6 793.7 C625.6 793.65 628.59 793.63 631.59 793.61 C632.51 793.59 633.44 793.57 634.39 793.55 C641.93 793.54 646.95 795.56 652.81 800.25 C656.69 805.13 658.67 810.52 658.42 816.85 C657.26 822.79 653.92 829.38 649 833 C642.5 836.62 636.46 836.42 629.14 836.38 C627.83 836.38 626.52 836.39 625.18 836.39 C621.55 836.41 617.92 836.4 614.29 836.39 C610.34 836.38 606.4 836.4 602.45 836.4 C595.53 836.42 588.61 836.42 581.69 836.41 C571.41 836.4 561.12 836.41 550.83 836.42 C532.45 836.44 514.08 836.44 495.71 836.44 C479.63 836.43 463.55 836.43 447.47 836.44 C445.31 836.44 443.16 836.44 441 836.44 C437.75 836.44 434.51 836.44 431.26 836.45 C401.06 836.46 370.85 836.46 340.65 836.45 C338.94 836.45 338.94 836.45 337.2 836.45 C327.95 836.45 318.7 836.45 309.45 836.45 C273.37 836.43 237.28 836.44 201.2 836.47 C160.67 836.49 120.15 836.51 79.62 836.5 C75.3 836.5 70.99 836.5 66.67 836.5 C65.6 836.5 64.54 836.5 63.44 836.5 C47.37 836.49 31.3 836.5 15.23 836.51 C-3.04 836.53 -21.31 836.53 -39.58 836.51 C-49.81 836.5 -60.04 836.5 -70.27 836.52 C-77.1 836.53 -83.93 836.53 -90.75 836.51 C-94.65 836.5 -98.54 836.5 -102.44 836.52 C-106.63 836.53 -110.82 836.52 -115.01 836.5 C-116.22 836.51 -117.43 836.52 -118.68 836.53 C-127.06 836.46 -132.17 835.07 -138.81 829.75 C-142.75 824.81 -144.63 819.49 -144.35 813.08 C-143.25 806.58 -140.17 801.09 -135 797 C-129.12 793.86 -124.28 793.6 -117.69 793.71 C-116.72 793.71 -115.76 793.72 -114.76 793.72 C-111.7 793.74 -108.63 793.77 -105.56 793.81 C-103.47 793.83 -101.39 793.84 -99.3 793.85 C-94.2 793.89 -89.1 793.94 -84 794 C-84.03 793.3 -84.05 792.59 -84.08 791.87 C-84.65 774.15 -84.92 756.54 -73 742 C-72.34 742 -71.68 742 -71 742 C-70.74 741.42 -70.49 740.84 -70.22 740.24 C-64.56 729.85 -52.05 722.88 -41.11 719.53 C-28.04 716.23 -14.73 716.81 -1.36 716.94 C2.62 716.97 6.6 716.99 10.58 716.99 C11.25 716.99 11.93 717 12.62 717 C14 717 15.38 717 16.76 717 C26 717.02 35.23 717.05 44.47 717.15 C50.73 717.21 57 717.24 63.26 717.22 C66.57 717.21 69.87 717.23 73.17 717.29 C87.1 718.41 87.1 718.41 99.36 713.47 C101.35 710.7 102.67 708.12 104 705 C104.66 705 105.32 705 106 705 C106.31 704.38 106.62 703.76 106.94 703.12 C107.62 701.75 108.31 700.38 109 699 C109.66 699 110.32 699 111 699 C111.23 698.48 111.45 697.95 111.68 697.41 C113.47 694.14 115.76 691.3 118.06 688.38 C121.32 684.38 121.32 684.38 124 680 C124.66 680 125.32 680 126 680 C126.31 679.38 126.62 678.76 126.94 678.12 C127.62 676.75 128.31 675.38 129 674 C129.66 674 130.32 674 131 674 C131.23 673.48 131.45 672.95 131.68 672.41 C133.47 669.14 135.76 666.3 138.06 663.38 C141.32 659.38 141.32 659.38 144 655 C144.66 655 145.32 655 146 655 C146.66 653.35 147.32 651.7 148 650 C143.24 648.13 138.47 646.52 133.56 645.06 C128.93 643.66 124.6 642.05 120.23 639.99 C117.76 638.89 115.25 638.01 112.69 637.12 C107.47 635.27 102.63 632.9 97.7 630.37 C95.67 629.34 93.59 628.4 91.5 627.5 C83.51 624.07 75.89 620.05 68.49 615.49 C65.91 613.95 63.28 612.53 60.62 611.12 C50.27 605.5 40.82 598.5 31.32 591.57 C30.59 591.04 29.86 590.5 29.1 589.95 C28.4 589.44 27.71 588.94 26.99 588.41 C25.18 587.13 23.34 585.92 21.46 584.73 C20.65 584.16 19.84 583.59 19 583 C19 582.34 19 581.68 19 581 C18.43 580.73 17.86 580.46 17.27 580.19 C14.92 578.96 12.88 577.57 10.75 576 C10.04 575.48 9.34 574.97 8.61 574.44 C7.81 573.73 7.81 573.73 7 573 C7 572.34 7 571.68 7 571 C6.01 570.67 5.02 570.34 4 570 C4 569.34 4 568.68 4 568 C3.42 567.73 2.85 567.46 2.25 567.19 C-0.06 565.97 -2.02 564.7 -4 563 C-4 562.34 -4 561.68 -4 561 C-4.64 560.73 -5.28 560.46 -5.94 560.19 C-8 559 -8 559 -9 556 C-9.56 555.73 -10.11 555.46 -10.69 555.19 C-14.04 553.47 -16.62 550.91 -19 548 C-19 547.34 -19 546.68 -19 546 C-19.66 546 -20.32 546 -21 546 C-22.62 544.36 -22.62 544.36 -24.44 542.19 C-26.97 539.18 -26.97 539.18 -29.72 536.36 C-31 535 -31 535 -31 533 C-31.66 533 -32.32 533 -33 533 C-34.75 530.97 -36.38 528.94 -38 526.81 C-38.49 526.18 -38.97 525.55 -39.48 524.9 C-40.49 523.58 -41.5 522.27 -42.51 520.95 C-43.9 519.13 -45.3 517.33 -46.7 515.53 C-61 497.17 -61 497.17 -61 493 C-61.66 493 -62.32 493 -63 493 C-64.23 491.32 -64.23 491.32 -65.61 488.98 C-66.12 488.12 -66.63 487.26 -67.15 486.38 C-67.68 485.47 -68.21 484.56 -68.75 483.62 C-69.26 482.75 -69.78 481.88 -70.3 480.99 C-71.35 479.22 -72.39 477.44 -73.43 475.67 C-74.97 473.06 -76.54 470.48 -78.12 467.89 C-80.82 463.4 -83.17 458.81 -85.38 454.06 C-85.73 453.32 -86.08 452.58 -86.45 451.82 C-89 446.38 -89 446.38 -89 443 C-89.66 443 -90.32 443 -91 443 C-91.24 442.3 -91.48 441.6 -91.73 440.88 C-93.3 436.44 -94.85 432.1 -97.06 427.94 C-99 424.24 -100.1 420.49 -101.22 416.48 C-101.96 414.13 -102.87 412.03 -103.94 409.81 C-106.08 405.2 -107.32 400.42 -108.57 395.52 C-109.45 392.05 -110.39 388.64 -111.56 385.25 C-115.57 373.64 -117.8 361.81 -119.54 349.69 C-119.86 347.04 -119.86 347.04 -121 345 C-121.37 342.46 -121.7 339.93 -122 337.38 C-122.08 336.69 -122.17 336 -122.25 335.29 C-122.41 333.98 -122.56 332.66 -122.72 331.35 C-122.96 329.32 -123.23 327.3 -123.49 325.29 C-124.04 320.94 -124.35 316.6 -124.61 312.23 C-124.65 311.4 -124.7 310.57 -124.75 309.71 C-125.69 293.11 -126.3 276.67 -125.25 260.06 C-125.21 259.37 -125.16 258.68 -125.12 257.96 C-124.65 250.63 -123.85 243.48 -122.43 236.27 C-121.93 233.62 -121.7 231.01 -121.56 228.31 C-121.01 220.75 -119.49 213.42 -118 206 C-117.72 204.52 -117.72 204.52 -117.43 203 C-116.35 197.37 -115.19 191.8 -112.94 186.5 C-111.86 183.94 -111.86 183.94 -111.62 180.81 C-110.94 176.65 -109.59 173.26 -107.97 169.39 C-106.72 166.32 -105.87 163.2 -105 160 C-103.12 153.4 -101.27 147.06 -97.99 141.01 C-96.82 138.63 -95.98 136.2 -95.12 133.69 C-93.36 128.66 -91.02 124.21 -88.39 119.59 C-87.12 117.23 -86.14 114.95 -85.25 112.44 C-84 109 -84 109 -82 107 C-81.32 105.37 -80.64 103.74 -79.97 102.1 C-78.88 99.74 -77.6 97.57 -76.24 95.34 C-74.21 92.01 -72.21 88.66 -70.25 85.28 C-65.12 76.52 -59.79 68 -53.88 59.75 C-53.32 58.97 -52.76 58.19 -52.19 57.38 C-51.67 56.68 -51.15 55.97 -50.62 55.23 C-50.16 54.61 -49.7 53.98 -49.23 53.33 C-48.82 52.89 -48.42 52.45 -48 52 C-47.34 52 -46.68 52 -46 52 C-45.63 50.93 -45.63 50.93 -45.25 49.83 C-43.86 46.69 -42.16 44.36 -40 41.69 C-39.3 40.8 -38.6 39.92 -37.88 39.01 C-37.26 38.35 -36.64 37.68 -36 37 C-35.34 37 -34.68 37 -34 37 C-33.74 36.42 -33.48 35.85 -33.22 35.25 C-31.9 32.81 -30.37 30.99 -28.5 28.94 C-26.44 26.67 -24.71 24.56 -23 22 C-22.34 22 -21.68 22 -21 22 C-21 21.34 -21 20.68 -21 20 C-20.34 20 -19.68 20 -19 20 C-18.5 18.51 -18.5 18.51 -18 17 C-17.34 17 -16.68 17 -16 17 C-15.73 16.36 -15.46 15.72 -15.19 15.06 C-14 13 -14 13 -11 12 C-10.67 11.34 -10.34 10.68 -10 10 C-9 8 -9 8 -6 7 C-6 6.34 -6 5.68 -6 5 C-3.19 2.31 -3.19 2.31 0 0 Z M193.5 662.31 C190.83 664.81 190.83 664.81 190 668 C189.34 668 188.68 668 188 668 C186.56 669.54 186.56 669.54 185.06 671.62 C182.78 674.66 180.47 677.68 178.09 680.64 C177.34 681.58 177.34 681.58 176.58 682.54 C175.57 683.8 174.57 685.05 173.56 686.3 C170.89 689.28 170.89 689.28 170 693 C169.34 693 168.68 693 168 693 C166.46 694.68 166.46 694.68 164.88 696.88 C161.61 701.21 158.23 705.44 154.8 709.64 C152.67 712.35 152.67 712.35 150 717 C220.62 717 291.24 717 364 717 C360.27 711.41 357.07 706.69 352.75 701.75 C348.66 697.01 344.78 692.16 340.99 687.17 C337.32 682.37 333.52 677.67 329.69 673 C329.1 672.28 328.51 671.56 327.91 670.82 C326.29 668.86 324.65 666.93 323 665 C322.15 664.01 321.31 663.01 320.43 661.99 C318.16 659.76 318.16 659.76 315.21 659.7 C313.81 659.91 313.81 659.91 312.38 660.12 C310.96 660.31 310.96 660.31 309.52 660.51 C306.89 660.97 306.89 660.97 304 662 C301.25 662.21 298.51 662.37 295.75 662.5 C294.27 662.57 292.78 662.64 291.3 662.72 C290.64 662.75 289.98 662.78 289.31 662.81 C286.86 662.98 286.86 662.98 283.89 663.51 C279.07 664.12 274.35 664.14 269.5 664.13 C268.51 664.13 267.51 664.13 266.49 664.14 C264.39 664.14 262.3 664.13 260.2 664.13 C257.01 664.13 253.82 664.13 250.62 664.14 C248.58 664.14 246.54 664.13 244.5 664.13 C243.55 664.13 242.6 664.14 241.63 664.14 C236.65 664.12 231.93 663.81 227 663 C224.29 662.83 221.59 662.68 218.88 662.56 C211.49 662.19 204.29 661.25 197 660 C195.55 659.89 195.55 659.89 193.5 662.31 Z " fill="#000000" transform="translate(383,365)"/>
<path d="M0 0 C1.94 1.31 1.94 1.31 4.56 3.62 C4.56 4.28 4.56 4.94 4.56 5.62 C5.55 5.96 6.54 6.28 7.56 6.62 C8.75 9.19 8.75 9.19 9.56 11.62 C10.22 11.62 10.88 11.62 11.56 11.62 C12.83 13.4 12.83 13.4 14.38 16 C17.63 21.28 21.15 26.3 24.81 31.31 C29.23 37.38 33.6 43.46 37.88 49.62 C38.59 50.64 38.59 50.64 39.31 51.67 C42.56 56.39 42.56 56.39 42.56 58.62 C43.22 58.62 43.88 58.62 44.56 58.62 C45.83 60.4 45.83 60.4 47.38 63 C50.6 68.22 54.07 73.18 57.69 78.12 C62.5 84.73 67.24 91.39 71.88 98.12 C72.44 98.94 73.01 99.76 73.6 100.61 C74.12 101.37 74.64 102.12 75.18 102.91 C75.64 103.58 76.1 104.25 76.58 104.94 C77.56 106.62 77.56 106.62 77.56 108.62 C78.22 108.62 78.88 108.62 79.56 108.62 C80.85 110.3 80.85 110.3 82.19 112.5 C82.63 113.22 83.08 113.94 83.54 114.68 C84.56 116.62 84.56 116.62 84.56 118.62 C85.22 118.62 85.88 118.62 86.56 118.62 C87.83 120.4 87.83 120.4 89.38 123 C93.21 129.22 97.45 135.1 101.77 140.99 C112.56 155.76 112.56 155.76 112.56 158.62 C113.22 158.62 113.88 158.62 114.56 158.62 C115.85 160.3 115.85 160.3 117.19 162.5 C117.63 163.22 118.08 163.94 118.54 164.68 C119.56 166.62 119.56 166.62 119.56 168.62 C120.22 168.62 120.88 168.62 121.56 168.62 C122.83 170.4 122.83 170.4 124.38 173 C128.21 179.22 132.45 185.1 136.77 190.99 C147.56 205.76 147.56 205.76 147.56 208.62 C148.22 208.62 148.88 208.62 149.56 208.62 C152.56 213.01 152.56 213.01 152.56 215.62 C153.22 215.62 153.88 215.62 154.56 215.62 C154.56 216.62 154.56 217.61 154.56 218.62 C155.22 218.62 155.88 218.62 156.56 218.62 C157.83 220.4 157.83 220.4 159.38 223 C163.21 229.22 167.45 235.1 171.77 240.99 C182.56 255.76 182.56 255.76 182.56 258.62 C183.22 258.62 183.88 258.62 184.56 258.62 C185.85 260.3 185.85 260.3 187.19 262.5 C187.63 263.22 188.08 263.94 188.54 264.68 C189.56 266.62 189.56 266.62 189.56 268.62 C190.22 268.62 190.88 268.62 191.56 268.62 C192.83 270.4 192.83 270.4 194.38 273 C198.21 279.22 202.45 285.1 206.77 290.99 C217.56 305.76 217.56 305.76 217.56 308.62 C218.22 308.62 218.88 308.62 219.56 308.62 C222.56 313.01 222.56 313.01 222.56 315.62 C223.22 315.62 223.88 315.62 224.56 315.62 C224.56 316.62 224.56 317.61 224.56 318.62 C225.22 318.62 225.88 318.62 226.56 318.62 C227.83 320.4 227.83 320.4 229.38 323 C233.21 329.22 237.45 335.1 241.77 340.99 C251.55 354.38 258.05 365.01 257.44 382.12 C255.38 390.37 252.05 398.1 246.56 404.62 C245.9 404.62 245.24 404.62 244.56 404.62 C244.56 405.29 244.56 405.94 244.56 406.62 C242.97 408 242.97 408 240.77 409.56 C239.97 410.13 239.18 410.69 238.36 411.28 C237.52 411.87 236.68 412.45 235.81 413.06 C234.17 414.23 232.53 415.39 230.89 416.56 C230.16 417.07 229.42 417.59 228.67 418.12 C227.24 419.14 225.84 420.21 224.48 421.32 C222.56 422.62 222.56 422.62 219.56 422.62 C219.56 423.29 219.56 423.94 219.56 424.62 C215.18 427.62 215.18 427.62 212.56 427.62 C212.56 428.29 212.56 428.94 212.56 429.62 C211.57 429.62 210.58 429.62 209.56 429.62 C209.56 430.29 209.56 430.94 209.56 431.62 C207.79 432.89 207.79 432.89 205.19 434.44 C199.74 437.8 194.55 441.43 189.38 445.19 C188.63 445.73 187.88 446.27 187.11 446.83 C182.69 450.05 182.69 450.05 178.34 453.36 C177.63 453.91 176.93 454.46 176.2 455.03 C175.57 455.53 174.94 456.02 174.3 456.54 C172.56 457.62 172.56 457.62 169.56 457.62 C169.56 458.29 169.56 458.94 169.56 459.62 C165.18 462.62 165.18 462.62 162.56 462.62 C162.56 463.29 162.56 463.94 162.56 464.62 C161.57 464.62 160.58 464.62 159.56 464.62 C159.56 465.29 159.56 465.94 159.56 466.62 C157.37 468.21 157.37 468.21 154.44 470 C153.43 470.62 152.43 471.24 151.39 471.88 C150.46 472.46 149.53 473.03 148.56 473.62 C147.41 474.39 146.26 475.16 145.12 475.94 C135.79 482.09 124.98 483.06 114.05 481.2 C103.47 478.11 95.22 471.16 88.56 462.62 C88.03 461.96 87.51 461.29 86.96 460.6 C83.56 456.1 83.56 456.1 83.56 452.62 C82.9 452.62 82.24 452.62 81.56 452.62 C80.05 450.73 80.05 450.73 78.44 448.25 C77.9 447.44 77.36 446.63 76.8 445.79 C75.56 443.62 75.56 443.62 75.56 441.62 C74.9 441.62 74.24 441.62 73.56 441.62 C72.29 439.85 72.29 439.85 70.75 437.25 C67.53 432.03 64.06 427.07 60.44 422.12 C55.62 415.52 50.89 408.86 46.25 402.12 C45.68 401.31 45.11 400.49 44.52 399.64 C44 398.88 43.48 398.13 42.95 397.34 C42.49 396.67 42.03 396 41.55 395.31 C40.56 393.62 40.56 393.62 40.56 391.62 C39.9 391.62 39.24 391.62 38.56 391.62 C35.56 387.24 35.56 387.24 35.56 384.62 C34.9 384.62 34.24 384.62 33.56 384.62 C32.29 382.85 32.29 382.85 30.75 380.25 C27.53 375.03 24.06 370.07 20.44 365.12 C15.62 358.52 10.89 351.86 6.25 345.12 C5.68 344.31 5.11 343.49 4.52 342.64 C4 341.88 3.48 341.13 2.95 340.34 C2.49 339.67 2.03 339 1.55 338.31 C0.56 336.62 0.56 336.62 0.56 334.62 C-0.1 334.62 -0.76 334.62 -1.44 334.62 C-4.03 331.13 -4.6 328.91 -4.44 324.62 C-3.33 324.08 -2.22 323.54 -1.08 322.98 C0.39 322.26 1.85 321.54 3.31 320.81 C4.04 320.46 4.77 320.1 5.52 319.73 C8.5 318.26 11.24 316.87 13.89 314.86 C15.56 313.62 15.56 313.62 18.56 313.62 C18.56 312.96 18.56 312.31 18.56 311.62 C20.24 310.12 20.24 310.12 22.44 308.5 C23.16 307.96 23.88 307.42 24.62 306.87 C26.56 305.62 26.56 305.62 28.56 305.62 C28.56 304.96 28.56 304.31 28.56 303.62 C29.22 303.62 29.88 303.62 30.56 303.62 C30.56 302.96 30.56 302.31 30.56 301.62 C31.94 300 31.94 300 33.56 298.62 C34.22 298.62 34.88 298.62 35.56 298.62 C35.89 297.63 36.22 296.64 36.56 295.62 C37.22 295.62 37.88 295.62 38.56 295.62 C38.8 294.92 39.04 294.21 39.29 293.48 C40.76 290.19 42.64 287.76 44.88 284.94 C57.55 268.47 63.14 247.83 62.95 227.26 C62.94 225.13 62.95 223 62.97 220.86 C62.99 208.3 60.62 197.13 55.56 185.62 C55.29 184.94 55.02 184.25 54.73 183.54 C52.04 176.96 48.3 171.02 44.59 164.98 C43.12 162.55 41.76 160.19 40.56 157.62 C39.9 157.62 39.24 157.62 38.56 157.62 C33.56 152.15 33.56 152.15 33.56 149.62 C32.99 149.36 32.41 149.09 31.81 148.81 C29.51 147.6 27.54 146.32 25.56 144.62 C25.56 143.97 25.56 143.31 25.56 142.62 C24.68 142.2 24.68 142.2 23.78 141.77 C21.77 140.73 19.91 139.62 18.02 138.38 C10.74 133.68 3.82 129.42 -4.44 126.62 C-5.73 126.11 -7.02 125.58 -8.31 125.06 C-18.81 121.28 -28.52 120.14 -39.58 120.23 C-41.87 120.25 -44.15 120.23 -46.44 120.21 C-59.29 120.2 -70.62 122.44 -82.44 127.62 C-83.12 127.89 -83.79 128.15 -84.49 128.42 C-98.53 134.06 -110.81 143.38 -121.07 154.38 C-122.44 155.62 -122.44 155.62 -125.44 156.62 C-125.8 156.12 -126.16 155.62 -126.54 155.1 C-128.21 152.77 -129.89 150.45 -131.56 148.12 C-132.13 147.33 -132.7 146.54 -133.29 145.73 C-136.04 141.91 -138.82 138.11 -141.67 134.37 C-150.84 122.2 -158.18 107.08 -156.44 91.62 C-154.7 85.85 -152.46 80.2 -148.44 75.62 C-147.78 75.62 -147.12 75.62 -146.44 75.62 C-146.44 74.97 -146.44 74.31 -146.44 73.62 C-145.78 73.62 -145.12 73.62 -144.44 73.62 C-144.17 72.99 -143.9 72.35 -143.62 71.69 C-142.44 69.62 -142.44 69.62 -139.44 68.62 C-138.94 67.14 -138.94 67.14 -138.44 65.62 C-137.78 65.62 -137.12 65.62 -136.44 65.62 C-136.44 64.97 -136.44 64.31 -136.44 63.62 C-134.28 61.91 -132.13 60.32 -129.88 58.75 C-128.96 58.1 -128.96 58.1 -128.03 57.43 C-124.55 54.98 -121.01 52.81 -117.29 50.73 C-113.54 48.49 -110.07 45.84 -106.56 43.25 C-89.37 30.62 -89.37 30.62 -86.44 30.62 C-86.44 29.97 -86.44 29.31 -86.44 28.62 C-84.76 27.34 -84.76 27.34 -82.56 26 C-81.84 25.55 -81.12 25.11 -80.38 24.65 C-78.44 23.62 -78.44 23.62 -76.44 23.62 C-76.44 22.97 -76.44 22.31 -76.44 21.62 C-74.66 20.36 -74.66 20.36 -72.06 18.81 C-65.77 14.94 -59.84 10.64 -53.9 6.24 C-36.63 -6.42 -19.77 -11.15 0 0 Z " fill="#000000" transform="translate(533.4375,123.375)"/>
<path d="M0 0 C0 0.66 0 1.32 0 2 C0.62 2.31 1.24 2.62 1.88 2.94 C3.25 3.62 4.62 4.31 6 5 C6 5.66 6 6.32 6 7 C6.64 7.27 7.28 7.54 7.94 7.81 C10 9 10 9 11 12 C11.66 12 12.32 12 13 12 C18.86 19.29 22.84 27.24 26 36 C26.34 36.91 26.69 37.81 27.04 38.75 C28.59 44.02 28.37 49.26 28.37 54.72 C28.37 56.73 28.41 58.74 28.45 60.75 C28.47 68.8 27.51 74.78 24 82 C23.52 83.35 23.06 84.7 22.62 86.06 C20.88 90.78 18.22 95.13 15 99 C14.34 99 13.68 99 13 99 C12.75 99.58 12.49 100.16 12.23 100.75 C5.88 112.35 -8.61 119.63 -20.73 123.38 C-38.97 128.39 -56.45 125.68 -72.95 116.33 C-88.87 106.51 -100.51 92.08 -105.47 73.75 C-109.19 54.39 -106.71 35.61 -96 19 C-91.37 12.75 -86.37 6.53 -80 2 C-79.34 2 -78.68 2 -78 2 C-78 1.34 -78 0.68 -78 0 C-74.01 -2.02 -70.01 -4.02 -66 -6 C-65.2 -6.4 -64.41 -6.8 -63.59 -7.22 C-42.35 -17.41 -19.25 -11.42 0 0 Z " fill="#000000" transform="translate(530,292)"/>
<path d="M0 0 C0.93 -0 1.85 -0.01 2.8 -0.01 C5.91 -0.03 9.01 -0.02 12.11 -0.02 C14.34 -0.03 16.56 -0.04 18.79 -0.04 C24.83 -0.06 30.87 -0.07 36.92 -0.07 C41.96 -0.07 47.01 -0.08 52.05 -0.08 C63.27 -0.1 74.5 -0.1 85.72 -0.1 C86.39 -0.1 87.06 -0.1 87.76 -0.1 C88.43 -0.1 89.11 -0.1 89.8 -0.1 C100.72 -0.1 111.64 -0.12 122.56 -0.15 C133.78 -0.18 145 -0.19 156.21 -0.19 C162.51 -0.19 168.81 -0.2 175.1 -0.22 C181.02 -0.24 186.95 -0.24 192.87 -0.22 C195.04 -0.22 197.21 -0.22 199.38 -0.24 C202.35 -0.25 205.32 -0.24 208.29 -0.23 C209.15 -0.24 210 -0.25 210.88 -0.26 C217.21 -0.19 222.66 1.26 227.36 5.71 C232.75 11.93 233.34 16.69 233.21 24.78 C232.51 31.25 229.55 35.13 224.58 39.14 C217.96 43.29 210.29 43.56 202.66 43.53 C201.35 43.53 201.35 43.53 200 43.54 C197.09 43.55 194.17 43.55 191.25 43.54 C189.15 43.55 187.05 43.55 184.95 43.56 C179.25 43.57 173.56 43.57 167.87 43.57 C163.11 43.57 158.35 43.57 153.59 43.58 C142.36 43.59 131.13 43.59 119.9 43.58 C108.33 43.58 96.76 43.59 85.19 43.61 C75.24 43.63 65.29 43.63 55.35 43.63 C49.41 43.63 43.48 43.63 37.54 43.65 C31.96 43.66 26.37 43.66 20.79 43.64 C18.75 43.64 16.7 43.64 14.66 43.65 C-11.11 43.75 -11.11 43.75 -19.73 36.06 C-24.39 30.24 -24.74 24.9 -24.58 17.69 C-23.83 11.5 -21.07 8.08 -16.67 3.89 C-11.08 0.26 -6.49 -0.02 0 0 Z " fill="#000000" transform="translate(768.1652374267578,774.7325744628906)"/>
<path d="M0 0 C-2.27 4.64 -5.35 6.9 -9.62 9.56 C-10.98 10.44 -12.34 11.32 -13.7 12.2 C-14.41 12.65 -15.11 13.11 -15.84 13.58 C-19.44 15.94 -22.93 18.44 -26.44 20.94 C-32.26 25.06 -38.08 29.18 -43.94 33.25 C-44.62 33.73 -45.3 34.21 -46 34.7 C-50.77 38 -50.77 38 -53 38 C-53 38.66 -53 39.32 -53 40 C-57.38 43 -57.38 43 -60 43 C-60 43.66 -60 44.32 -60 45 C-60.99 45 -61.98 45 -63 45 C-63 45.66 -63 46.32 -63 47 C-67.38 50 -67.38 50 -70 50 C-70 50.66 -70 51.32 -70 52 C-71.77 53.27 -71.77 53.27 -74.38 54.81 C-80.76 58.74 -86.77 63.11 -92.8 67.56 C-93.55 68.1 -94.29 68.65 -95.06 69.21 C-95.72 69.7 -96.38 70.19 -97.07 70.69 C-98.98 71.99 -100.91 73.02 -103 74 C-105.24 72.25 -105.96 71.16 -106.69 68.38 C-108.07 53.42 -105.11 40.63 -97 28 C-96.48 27.16 -95.97 26.32 -95.43 25.46 C-89.49 16.99 -80.58 11.42 -72.21 5.55 C-70.2 4.14 -68.2 2.7 -66.21 1.25 C-45.96 -12.93 -20.82 -12.67 0 0 Z " fill="#000000" transform="translate(471,88)"/>
<path d="M0 0 C0.99 0.4 0.99 0.4 2 0.81 C4.48 17.62 -0.21 31.18 -8 45.81 C-8.66 45.81 -9.32 45.81 -10 45.81 C-10.27 46.58 -10.54 47.34 -10.81 48.12 C-11.95 50.7 -12.81 52.08 -15 53.81 C-15.66 53.81 -16.32 53.81 -17 53.81 C-17 54.47 -17 55.13 -17 55.81 C-20.46 58.81 -20.46 58.81 -23 58.81 C-23 59.47 -23 60.13 -23 60.81 C-33.74 67.1 -44.22 71.22 -56.81 71.12 C-57.6 71.12 -58.39 71.12 -59.2 71.11 C-69.86 70.9 -78.5 67.46 -88 62.81 C-86.68 57.04 -82.38 54.84 -77.75 51.75 C-77 51.23 -76.25 50.72 -75.47 50.19 C-74 49.18 -72.53 48.18 -71.05 47.19 C-69.75 46.32 -68.47 45.44 -67.19 44.55 C-63.22 41.81 -63.22 41.81 -61 41.81 C-61 41.15 -61 40.49 -61 39.81 C-56.62 36.81 -56.62 36.81 -54 36.81 C-54 36.15 -54 35.49 -54 34.81 C-53.01 34.81 -52.02 34.81 -51 34.81 C-51 34.15 -51 33.49 -51 32.81 C-49.23 31.54 -49.23 31.54 -46.62 30 C-40.4 26.16 -34.53 21.93 -28.64 17.61 C-13.87 6.81 -13.87 6.81 -11 6.81 C-11 6.15 -11 5.49 -11 4.81 C-7.62 1.97 -4.48 -0.28 0 0 Z " fill="#000000" transform="translate(793,567.1875)"/>
</svg>
