<?xml version="1.0" encoding="UTF-8"?>
<!-- Generator: visioncortex VTracer 0.6.3 -->
<svg version="1.1" xmlns="http://www.w3.org/2000/svg" width="1280" height="1280">
<path d="M0 0 C1.03 -0.01 2.06 -0.01 3.12 -0.02 C6.47 -0.04 9.82 -0.04 13.18 -0.05 C14.31 -0.05 15.45 -0.05 16.62 -0.05 C31.45 -0.06 46.16 0.28 60.93 1.64 C61.66 1.71 62.39 1.78 63.14 1.84 C74.68 2.94 74.68 2.94 79.49 4.2 C81.47 4.38 83.44 4.52 85.43 4.64 C93.59 5.23 101.76 6.13 109.68 8.27 C112.64 8.99 115.06 9.37 118.05 9.58 C123.72 10.06 128.99 11.62 134.46 13.16 C139.91 14.63 145.46 15.55 151.03 16.49 C154.08 17.12 156.63 18 159.49 19.2 C161.82 19.54 164.15 19.88 166.49 20.2 C169.34 21.06 172.07 22.03 174.81 23.18 C177.58 24.24 180.29 24.96 183.18 25.64 C191.12 27.59 198.6 29.72 206.02 33.18 C208.88 34.37 211.76 35.22 214.74 36.08 C220.57 37.81 225.89 40.13 231.37 42.77 C234.23 44.08 237.07 45.18 240.05 46.2 C245.13 47.98 249.8 50.3 254.57 52.76 C257.24 54.08 259.9 55.2 262.68 56.27 C266.74 57.83 270.43 59.75 274.21 61.92 C276.6 63.26 279.03 64.49 281.49 65.7 C287.95 68.9 294.2 72.41 300.36 76.14 C303.8 78.22 307.26 80.18 310.8 82.08 C315.16 84.44 319.44 86.9 323.68 89.45 C324.78 90.12 325.89 90.78 327.03 91.47 C327.84 92.04 328.65 92.61 329.49 93.2 C329.49 93.86 329.49 94.52 329.49 95.2 C330.03 95.3 330.57 95.39 331.13 95.49 C334.19 96.41 336.55 97.93 339.24 99.64 C340.72 100.57 340.72 100.57 342.22 101.51 C342.97 102.07 343.72 102.63 344.49 103.2 C344.49 103.86 344.49 104.52 344.49 105.2 C345.48 105.2 346.47 105.2 347.49 105.2 C347.49 105.86 347.49 106.52 347.49 107.2 C348.27 107.51 349.06 107.82 349.86 108.14 C352.49 109.2 352.49 109.2 354.49 110.2 C354.49 110.86 354.49 111.52 354.49 112.2 C355.27 112.51 356.06 112.82 356.86 113.14 C359.49 114.2 359.49 114.2 361.49 115.2 C361.49 115.86 361.49 116.52 361.49 117.2 C362.05 117.47 362.61 117.74 363.19 118.02 C365.64 119.28 367.93 120.69 370.24 122.2 C371.04 122.72 371.84 123.23 372.66 123.77 C373.26 124.24 373.87 124.71 374.49 125.2 C374.49 125.86 374.49 126.52 374.49 127.2 C375.02 127.45 375.56 127.7 376.11 127.95 C379.07 129.51 381.79 131.24 384.49 133.2 C384.49 133.86 384.49 134.52 384.49 135.2 C385.07 135.47 385.64 135.74 386.24 136.02 C388.54 137.23 390.51 138.51 392.49 140.2 C392.49 140.86 392.49 141.52 392.49 142.2 C393.03 142.43 393.58 142.65 394.14 142.89 C397.22 144.62 399.53 146.85 402.11 149.27 C405.53 152.62 405.53 152.62 409.49 155.2 C409.49 155.86 409.49 156.52 409.49 157.2 C410.48 157.53 411.47 157.86 412.49 158.2 C412.49 158.86 412.49 159.52 412.49 160.2 C413.15 160.2 413.81 160.2 414.49 160.2 C414.49 160.86 414.49 161.52 414.49 162.2 C415.48 162.53 416.47 162.86 417.49 163.2 C417.49 163.86 417.49 164.52 417.49 165.2 C418.08 165.47 418.67 165.74 419.29 166.02 C421.49 167.21 422.95 168.41 424.72 170.17 C425.3 170.74 425.87 171.31 426.46 171.9 C427.05 172.5 427.63 173.09 428.24 173.7 C429.14 174.59 429.14 174.59 430.06 175.5 C430.63 176.07 431.2 176.65 431.79 177.23 C432.3 177.76 432.82 178.28 433.36 178.81 C434.49 180.2 434.49 180.2 434.49 182.2 C435.48 182.53 436.47 182.86 437.49 183.2 C437.49 183.86 437.49 184.52 437.49 185.2 C438.15 185.2 438.81 185.2 439.49 185.2 C439.49 185.86 439.49 186.52 439.49 187.2 C440.48 187.53 441.47 187.86 442.49 188.2 C442.49 188.86 442.49 189.52 442.49 190.2 C443.15 190.2 443.81 190.2 444.49 190.2 C445.9 191.78 447.24 193.41 448.55 195.08 C452.46 199.98 456.55 204.63 460.84 209.21 C462.49 211.2 462.49 211.2 462.49 213.2 C463.15 213.2 463.81 213.2 464.49 213.2 C465.78 214.66 465.78 214.66 467.11 216.58 C467.78 217.52 467.78 217.52 468.46 218.48 C469.49 220.2 469.49 220.2 469.49 222.2 C470.15 222.2 470.81 222.2 471.49 222.2 C473 223.88 473 223.88 474.61 226.08 C475.15 226.8 475.69 227.52 476.25 228.26 C477.49 230.2 477.49 230.2 477.49 232.2 C478.15 232.2 478.81 232.2 479.49 232.2 C480.72 233.62 480.72 233.62 482.1 235.61 C482.6 236.33 483.11 237.05 483.63 237.79 C484.16 238.57 484.69 239.34 485.24 240.14 C485.78 240.92 486.32 241.69 486.87 242.49 C488.42 244.73 489.95 246.96 491.49 249.2 C492.19 250.21 492.89 251.22 493.61 252.27 C497.49 257.93 497.49 257.93 497.49 260.2 C498.15 260.2 498.81 260.2 499.49 260.2 C499.49 261.19 499.49 262.18 499.49 263.2 C500.15 263.2 500.81 263.2 501.49 263.2 C503 265.47 504.38 267.72 505.74 270.08 C506.34 271.11 506.34 271.11 506.96 272.16 C507.77 273.55 508.58 274.93 509.39 276.31 C510.76 278.66 512.15 281 513.55 283.33 C514.02 284.11 514.48 284.89 514.96 285.7 C516.09 287.54 517.23 289.38 518.39 291.21 C522.56 297.84 526.27 304.55 529.7 311.59 C531.58 315.43 533.59 319.19 535.61 322.95 C539.93 331.01 544.09 338.97 547.39 347.51 C548.65 350.59 550.06 353.57 551.49 356.58 C553.88 361.68 555.8 366.77 557.43 372.16 C558.31 374.69 559.3 377.03 560.41 379.46 C562.52 384.13 564.08 388.87 565.55 393.77 C567.35 399.67 569.28 405.44 571.49 411.2 C573.24 416.12 574.75 421.03 575.96 426.11 C576.56 428.48 577.27 430.8 577.99 433.14 C579.16 437 580.12 440.85 580.96 444.79 C581.57 447.59 582.28 450.36 582.99 453.14 C585.18 461.88 586.75 470.6 588.02 479.52 C588.35 482.16 588.35 482.16 589.49 484.2 C591.08 492.46 591.94 500.84 592.79 509.2 C593.12 512.35 593.48 515.18 594.49 518.2 C594.75 521.82 594.93 525.42 595.09 529.04 C595.26 532.3 595.45 535.09 596.49 538.2 C596.58 539.63 596.61 541.07 596.62 542.5 C596.62 543.81 596.62 543.81 596.62 545.15 C596.62 546.11 596.62 547.07 596.62 548.06 C596.62 549.07 596.62 550.08 596.62 551.12 C596.63 554.47 596.62 557.83 596.62 561.18 C596.62 563.5 596.62 565.82 596.62 568.14 C596.63 573.01 596.62 577.88 596.62 582.75 C596.61 589.01 596.62 595.26 596.62 601.51 C596.63 606.31 596.62 611.11 596.62 615.9 C596.62 618.21 596.62 620.52 596.62 622.82 C596.63 626.04 596.62 629.26 596.62 632.48 C596.62 633.92 596.62 633.92 596.62 635.39 C596.62 636.26 596.62 637.13 596.62 638.03 C596.61 638.8 596.61 639.56 596.61 640.34 C596.49 642.2 596.49 642.2 595.49 644.2 C595.33 646.81 595.21 649.41 595.11 652.02 C594.67 661.74 593.35 671.25 591.85 680.86 C591.53 682.93 591.22 685 590.92 687.07 C589.8 694.61 588.68 702.16 586.52 709.49 C585.25 714.06 584.44 718.65 583.63 723.33 C582.9 727.44 581.85 731.26 580.49 735.2 C580.15 737.54 579.82 739.87 579.49 742.2 C578.41 746.45 577.03 750.56 575.61 754.7 C574.03 759.39 572.71 764.1 571.49 768.89 C570.2 773.84 568.7 778.31 566.49 782.9 C565.25 785.76 564.38 788.66 563.49 791.64 C562.08 796.37 560.51 800.93 558.61 805.48 C557.5 808.19 556.43 810.91 555.37 813.63 C552.85 820.09 550.03 826.28 546.85 832.45 C545.62 834.94 544.59 837.42 543.61 840.02 C541.68 845.02 539.18 849.68 536.63 854.38 C534.27 858.72 532.04 863.09 529.86 867.52 C527.43 872.43 524.81 877.14 521.93 881.81 C520.48 884.21 519.17 886.66 517.86 889.14 C513.55 897.16 508.52 904.75 503.61 912.41 C502.45 914.2 502.45 914.2 501.49 916.2 C500.83 916.2 500.17 916.2 499.49 916.2 C499.49 917.19 499.49 918.18 499.49 919.2 C498.83 919.2 498.17 919.2 497.49 919.2 C497.02 920.38 497.02 920.38 496.55 921.58 C495.49 924.2 495.49 924.2 494.49 926.2 C493.83 926.2 493.17 926.2 492.49 926.2 C492.37 926.79 492.25 927.38 492.13 927.99 C491.07 931.64 488.76 934.4 486.55 937.45 C486.1 938.1 485.64 938.75 485.17 939.42 C484 941.06 482.75 942.64 481.49 944.2 C480.83 944.2 480.17 944.2 479.49 944.2 C479.26 944.91 479.02 945.61 478.79 946.34 C477.23 949.78 475.2 952.16 472.74 955.02 C469.17 959.17 465.78 963.38 462.64 967.88 C462.26 968.31 461.88 968.75 461.49 969.2 C460.83 969.2 460.17 969.2 459.49 969.2 C459.3 969.88 459.12 970.56 458.93 971.27 C457.19 974.82 454.91 976.97 452.05 979.65 C450.39 981.14 450.39 981.14 449.49 983.2 C448.83 983.2 448.17 983.2 447.49 983.2 C447.09 984.08 447.09 984.08 446.68 984.97 C445.47 987.23 444.15 989.01 442.49 990.95 C441.97 991.57 441.46 992.18 440.93 992.81 C439.49 994.2 439.49 994.2 437.49 994.2 C437.49 994.86 437.49 995.52 437.49 996.2 C436.11 997.83 436.11 997.83 434.49 999.2 C433.83 999.2 433.17 999.2 432.49 999.2 C432.28 999.74 432.08 1000.28 431.86 1000.83 C429.96 1004.12 427.44 1006.8 424.49 1009.2 C423.83 1009.2 423.17 1009.2 422.49 1009.2 C422.49 1009.86 422.49 1010.52 422.49 1011.2 C421.11 1012.83 421.11 1012.83 419.49 1014.2 C418.83 1014.2 418.17 1014.2 417.49 1014.2 C417.49 1014.86 417.49 1015.52 417.49 1016.2 C415.84 1017.82 415.84 1017.82 413.68 1019.64 C410.66 1022.18 410.66 1022.18 407.85 1024.93 C406.49 1026.2 406.49 1026.2 404.49 1026.2 C404.49 1026.86 404.49 1027.52 404.49 1028.2 C402.91 1029.79 402.91 1029.79 400.8 1031.58 C399.71 1032.5 399.71 1032.5 398.59 1033.45 C397.9 1034.03 397.2 1034.61 396.49 1035.2 C395.54 1036.01 394.59 1036.81 393.61 1037.64 C391.49 1039.2 391.49 1039.2 389.49 1039.2 C389.49 1039.86 389.49 1040.52 389.49 1041.2 C387.38 1043.01 385.26 1044.71 383.05 1046.39 C382.41 1046.88 381.78 1047.37 381.12 1047.87 C379.84 1048.86 378.56 1049.84 377.28 1050.82 C374.2 1053.19 371.19 1055.63 368.16 1058.06 C366.49 1059.2 366.49 1059.2 364.49 1059.2 C364.49 1059.86 364.49 1060.52 364.49 1061.2 C360.1 1064.2 360.1 1064.2 357.49 1064.2 C357.49 1064.86 357.49 1065.52 357.49 1066.2 C356.5 1066.2 355.51 1066.2 354.49 1066.2 C354.49 1066.86 354.49 1067.52 354.49 1068.2 C351.93 1070.5 351.01 1071.2 347.49 1071.2 C347.49 1071.86 347.49 1072.52 347.49 1073.2 C345.22 1074.89 345.22 1074.89 342.24 1076.77 C341.26 1077.39 340.29 1078.01 339.29 1078.64 C336.92 1079.96 335.13 1080.74 332.49 1081.2 C332.49 1081.86 332.49 1082.52 332.49 1083.2 C330.8 1084.44 330.8 1084.44 328.43 1085.81 C327.57 1086.32 326.71 1086.83 325.82 1087.35 C324.45 1088.14 324.45 1088.14 323.05 1088.95 C321.28 1089.99 319.51 1091.02 317.74 1092.06 C316.43 1092.83 316.43 1092.83 315.09 1093.62 C311.78 1095.64 308.62 1097.84 305.48 1100.11 C303.49 1101.2 303.49 1101.2 299.49 1101.2 C299.49 1101.86 299.49 1102.52 299.49 1103.2 C298.67 1103.6 297.86 1104 297.02 1104.42 C290.18 1107.81 283.41 1111.29 276.68 1114.89 C271.71 1117.54 266.76 1120.12 261.58 1122.32 C259.09 1123.37 256.63 1124.51 254.18 1125.64 C249.23 1127.89 244.24 1130 239.21 1132.07 C237 1132.99 234.81 1133.93 232.61 1134.89 C229.61 1136.15 226.58 1137.17 223.49 1138.2 C222.48 1138.66 221.47 1139.11 220.43 1139.58 C215.96 1141.54 211.3 1142.83 206.64 1144.23 C202.16 1145.61 197.82 1147.26 193.47 1149.02 C189.11 1150.74 185.16 1151.55 180.49 1152.2 C178.24 1152.89 176.04 1153.67 173.82 1154.45 C171.48 1155.21 169.15 1155.76 166.74 1156.27 C163.47 1156.95 160.57 1157.9 157.49 1159.2 C148.82 1161.92 139.91 1163.34 130.96 1164.74 C128.5 1165.08 128.5 1165.08 126.49 1166.2 C124.81 1166.53 123.12 1166.81 121.43 1167.08 C117.74 1167.66 114.07 1168.27 110.41 1168.96 C102.53 1170.44 94.85 1171.51 86.84 1171.96 C83.59 1172.2 80.45 1172.63 77.24 1173.14 C57.61 1176.06 37.8 1176.51 17.99 1176.41 C14.24 1176.39 10.49 1176.39 6.74 1176.39 C4.33 1176.38 1.92 1176.38 -0.49 1176.37 C-1.6 1176.37 -2.71 1176.37 -3.85 1176.37 C-9.19 1176.33 -14.25 1176.08 -19.51 1175.2 C-20.98 1175.09 -22.46 1175.01 -23.93 1174.96 C-24.7 1174.93 -25.48 1174.89 -26.27 1174.86 C-27.07 1174.83 -27.87 1174.8 -28.7 1174.77 C-35.13 1174.47 -41.3 1173.87 -47.62 1172.67 C-50.92 1172.14 -54.18 1171.91 -57.51 1171.7 C-66.32 1171.15 -74.81 1169.63 -83.39 1167.63 C-85.48 1167.21 -87.51 1167 -89.64 1166.83 C-94.41 1166.36 -98.88 1165.09 -103.49 1163.79 C-109.62 1162.1 -115.79 1160.98 -122.05 1159.91 C-125.13 1159.28 -127.61 1158.38 -130.51 1157.2 C-133.99 1156.29 -137.5 1155.55 -141.01 1154.79 C-145.23 1153.84 -149.14 1152.63 -153.17 1151.04 C-156.08 1150 -159.03 1149.2 -162.01 1148.38 C-169.32 1146.33 -176.38 1143.8 -183.47 1141.1 C-185.51 1140.33 -187.55 1139.56 -189.59 1138.8 C-202.82 1133.82 -215.72 1128.21 -228.51 1122.2 C-229.24 1121.86 -229.96 1121.52 -230.71 1121.17 C-241.05 1116.32 -251.33 1111.37 -261.51 1106.2 C-261.51 1105.54 -261.51 1104.88 -261.51 1104.2 C-262.21 1104.11 -262.91 1104.03 -263.63 1103.93 C-267.15 1103.04 -269.58 1101.48 -272.64 1099.52 C-276.75 1096.9 -280.88 1094.42 -285.2 1092.14 C-289.65 1089.75 -293.72 1087.05 -297.81 1084.1 C-300.82 1081.99 -303.91 1080.03 -307.01 1078.08 C-315.12 1072.95 -322.82 1067.27 -330.55 1061.6 C-332.35 1060.32 -334.18 1059.12 -336.04 1057.94 C-336.86 1057.37 -337.67 1056.79 -338.51 1056.2 C-338.51 1055.54 -338.51 1054.88 -338.51 1054.2 C-339.04 1053.97 -339.57 1053.73 -340.12 1053.48 C-343.21 1051.83 -345.96 1049.8 -348.76 1047.7 C-349.32 1047.3 -349.87 1046.9 -350.44 1046.48 C-351.84 1045.44 -353.18 1044.33 -354.51 1043.2 C-354.51 1042.54 -354.51 1041.88 -354.51 1041.2 C-355.19 1041 -355.87 1040.79 -356.57 1040.58 C-360.43 1038.77 -363.59 1036.3 -366.51 1033.2 C-366.51 1032.54 -366.51 1031.88 -366.51 1031.2 C-367.05 1030.98 -367.58 1030.75 -368.14 1030.52 C-373.34 1027.64 -377.36 1023.39 -381.51 1019.2 C-382.34 1018.38 -383.16 1017.55 -384.01 1016.7 C-391.51 1009.2 -391.51 1009.2 -393.9 1006.81 C-395.87 1004.84 -397.85 1002.89 -399.84 1000.94 C-401 999.8 -402.16 998.66 -403.32 997.52 C-403.92 996.93 -404.52 996.35 -405.13 995.76 C-406.63 994.28 -408.08 992.74 -409.51 991.2 C-409.51 990.54 -409.51 989.88 -409.51 989.2 C-410.17 989.2 -410.83 989.2 -411.51 989.2 C-413.13 987.56 -413.13 987.56 -414.95 985.39 C-417.49 982.38 -417.49 982.38 -420.23 979.57 C-421.51 978.2 -421.51 978.2 -421.51 976.2 C-422.17 976.2 -422.83 976.2 -423.51 976.2 C-425.2 974.34 -425.2 974.34 -427.07 971.89 C-427.69 971.09 -428.31 970.29 -428.95 969.46 C-430.51 967.2 -430.51 967.2 -431.51 964.2 C-432.17 964.2 -432.83 964.2 -433.51 964.2 C-435.02 962.52 -435.02 962.52 -436.64 960.33 C-437.18 959.61 -437.71 958.89 -438.27 958.15 C-439.51 956.2 -439.51 956.2 -439.51 954.2 C-440.17 954.2 -440.83 954.2 -441.51 954.2 C-442.96 952.47 -444.32 950.66 -445.64 948.83 C-446.36 947.83 -447.09 946.83 -447.83 945.8 C-449.51 943.2 -449.51 943.2 -449.51 941.2 C-450.17 941.2 -450.83 941.2 -451.51 941.2 C-454.51 936.82 -454.51 936.82 -454.51 934.2 C-455.17 934.2 -455.83 934.2 -456.51 934.2 C-457.8 932.78 -457.8 932.78 -459.14 930.89 C-459.81 929.97 -459.81 929.97 -460.49 929.03 C-461.51 927.2 -461.51 927.2 -461.51 924.2 C-462.17 924.2 -462.83 924.2 -463.51 924.2 C-464.48 922.33 -465.43 920.46 -466.39 918.58 C-466.92 917.53 -467.45 916.49 -468 915.41 C-471.5 907.98 -471.91 901.72 -471.95 893.58 C-472 891.91 -472 891.91 -472.05 890.21 C-472.13 877.2 -466.8 866.15 -458.14 856.58 C-457.27 855.79 -456.4 855.01 -455.51 854.2 C-454.65 853.37 -454.65 853.37 -453.77 852.52 C-441.77 841.31 -428.41 838.72 -412.51 839.2 C-411.76 839.22 -411.01 839.24 -410.23 839.25 C-400.51 839.87 -391.34 844.63 -383.51 850.2 C-383.51 850.86 -383.51 851.52 -383.51 852.2 C-382.52 852.53 -381.53 852.86 -380.51 853.2 C-380.51 853.86 -380.51 854.52 -380.51 855.2 C-379.91 855.45 -379.32 855.7 -378.7 855.96 C-376.2 857.38 -375.13 858.71 -373.49 861.05 C-372.94 861.82 -372.4 862.59 -371.83 863.39 C-371.27 864.19 -370.71 865 -370.14 865.83 C-369.03 867.4 -367.91 868.98 -366.8 870.55 C-366.26 871.33 -365.72 872.1 -365.16 872.9 C-363.05 875.85 -360.83 878.73 -358.59 881.59 C-357.51 883.2 -357.51 883.2 -357.51 885.2 C-356.85 885.2 -356.19 885.2 -355.51 885.2 C-354 886.93 -354 886.93 -352.26 889.27 C-349.96 892.33 -347.62 895.28 -345.07 898.14 C-342.51 901.2 -342.51 901.2 -342.51 903.2 C-341.85 903.2 -341.19 903.2 -340.51 903.2 C-339.18 904.78 -339.18 904.78 -337.7 906.89 C-335.82 909.5 -334.05 911.66 -331.76 913.95 C-329.71 916 -328.59 917.55 -327.51 920.2 C-326.85 920.2 -326.19 920.2 -325.51 920.2 C-325.51 920.86 -325.51 921.52 -325.51 922.2 C-324.52 922.53 -323.53 922.86 -322.51 923.2 C-322.51 923.86 -322.51 924.52 -322.51 925.2 C-321.85 925.2 -321.19 925.2 -320.51 925.2 C-320.51 925.86 -320.51 926.52 -320.51 927.2 C-319.52 927.53 -318.53 927.86 -317.51 928.2 C-317.51 928.86 -317.51 929.52 -317.51 930.2 C-316.85 930.2 -316.19 930.2 -315.51 930.2 C-315.51 930.86 -315.51 931.52 -315.51 932.2 C-314.52 932.53 -313.53 932.86 -312.51 933.2 C-312.51 933.86 -312.51 934.52 -312.51 935.2 C-311.85 935.2 -311.19 935.2 -310.51 935.2 C-310.51 935.86 -310.51 936.52 -310.51 937.2 C-309.97 937.43 -309.42 937.65 -308.86 937.89 C-305.78 939.62 -303.47 941.85 -300.89 944.27 C-297.47 947.62 -297.47 947.62 -293.51 950.2 C-293.51 950.86 -293.51 951.52 -293.51 952.2 C-292.52 952.53 -291.53 952.86 -290.51 953.2 C-290.51 953.86 -290.51 954.52 -290.51 955.2 C-289.85 955.39 -289.19 955.57 -288.51 955.77 C-284.84 957.53 -282.26 959.9 -279.28 962.64 C-277.58 964.27 -277.58 964.27 -275.51 965.2 C-275.51 965.86 -275.51 966.52 -275.51 967.2 C-274.93 967.48 -274.35 967.76 -273.75 968.04 C-270.05 969.96 -266.7 972.36 -263.26 974.7 C-262.52 975.2 -261.77 975.7 -261 976.21 C-260.3 976.7 -259.6 977.18 -258.87 977.67 C-257.9 978.33 -257.9 978.33 -256.92 979 C-256.45 979.4 -255.99 979.79 -255.51 980.2 C-255.51 980.86 -255.51 981.52 -255.51 982.2 C-254.94 982.32 -254.37 982.43 -253.78 982.55 C-251.3 983.26 -249.45 984.28 -247.26 985.64 C-246.56 986.07 -245.85 986.5 -245.12 986.95 C-244.59 987.36 -244.06 987.78 -243.51 988.2 C-243.51 988.86 -243.51 989.52 -243.51 990.2 C-242.52 990.2 -241.53 990.2 -240.51 990.2 C-240.51 990.86 -240.51 991.52 -240.51 992.2 C-239.93 992.33 -239.36 992.45 -238.76 992.58 C-236.49 993.21 -234.59 994.09 -232.51 995.2 C-232.51 995.86 -232.51 996.52 -232.51 997.2 C-231.7 997.34 -231.7 997.34 -230.88 997.48 C-227.75 998.44 -225.38 1000.05 -222.64 1001.83 C-216.88 1005.48 -211 1008.56 -204.86 1011.54 C-201.77 1013.07 -198.77 1014.7 -195.76 1016.39 C-191.55 1018.72 -187.31 1020.57 -182.82 1022.28 C-180.74 1023.11 -178.81 1024.04 -176.82 1025.08 C-171.78 1027.68 -166.47 1029.67 -161.2 1031.74 C-158.85 1032.67 -156.51 1033.65 -154.2 1034.67 C-149.56 1036.6 -144.85 1038.15 -140.07 1039.7 C-129.89 1043.03 -129.89 1043.03 -125.58 1044.73 C-120.47 1046.68 -115.18 1047.94 -109.89 1049.27 C-99.16 1051.98 -99.16 1051.98 -95.33 1053.29 C-91.63 1054.49 -87.91 1055.09 -84.07 1055.7 C-82.62 1055.94 -81.16 1056.18 -79.7 1056.42 C-79.07 1056.52 -78.43 1056.63 -77.77 1056.73 C-75.51 1057.2 -75.51 1057.2 -72.19 1058.19 C-68.58 1059.19 -65.13 1059.77 -61.41 1060.24 C-60.76 1060.32 -60.11 1060.41 -59.45 1060.49 C-57.41 1060.75 -55.37 1061.01 -53.32 1061.27 C-50.62 1061.61 -47.92 1061.95 -45.22 1062.3 C-44.03 1062.45 -42.84 1062.6 -41.61 1062.75 C-38.51 1063.2 -38.51 1063.2 -36.39 1063.74 C-34.17 1064.29 -32.09 1064.4 -29.81 1064.48 C-28.46 1064.54 -28.46 1064.54 -27.09 1064.6 C-26.15 1064.63 -25.22 1064.67 -24.26 1064.7 C-22.42 1064.77 -20.58 1064.85 -18.75 1064.92 C-17.53 1064.97 -17.53 1064.97 -16.28 1065.01 C-14.11 1065.16 -11.94 1065.42 -9.78 1065.71 C-5.19 1066.31 -0.66 1066.35 3.96 1066.34 C4.84 1066.34 5.72 1066.34 6.62 1066.34 C8.47 1066.34 10.32 1066.34 12.17 1066.33 C14.98 1066.33 17.79 1066.33 20.6 1066.34 C22.41 1066.34 24.21 1066.34 26.02 1066.34 C26.85 1066.34 27.68 1066.34 28.54 1066.34 C33.61 1066.32 38.46 1065.89 43.49 1065.2 C45.11 1065.1 46.72 1065.03 48.34 1064.99 C65.5 1064.47 82.1 1062.17 98.93 1058.88 C102.13 1058.27 105.33 1057.75 108.55 1057.27 C114.38 1056.32 119.99 1054.78 125.68 1053.21 C129.37 1052.23 133.06 1051.45 136.8 1050.7 C141.91 1049.65 146.48 1048.16 151.27 1046.11 C153.87 1045.05 156.5 1044.39 159.23 1043.76 C166.82 1041.89 174.18 1039.52 181.26 1036.2 C183.72 1035.1 186.2 1034.21 188.74 1033.33 C194.12 1031.42 199.22 1029.07 204.38 1026.63 C206.98 1025.44 209.56 1024.39 212.24 1023.39 C218.54 1020.94 224.4 1017.63 230.34 1014.42 C233.02 1012.97 235.72 1011.58 238.45 1010.23 C246.33 1006.32 253.89 1001.85 261.43 997.33 C262.3 996.8 263.18 996.28 264.08 995.74 C269.4 992.53 274.55 989.24 279.52 985.51 C281.74 984.03 283.98 983.12 286.49 982.2 C286.49 981.54 286.49 980.88 286.49 980.2 C290.87 977.2 290.87 977.2 293.49 977.2 C293.49 976.54 293.49 975.88 293.49 975.2 C297.87 972.2 297.87 972.2 300.49 972.2 C300.49 971.54 300.49 970.88 300.49 970.2 C302.17 968.83 303.91 967.53 305.68 966.27 C311.08 962.34 316.19 958.15 321.21 953.75 C323.64 951.64 325.4 950.23 328.49 949.2 C328.49 948.54 328.49 947.88 328.49 947.2 C330.17 945.48 330.17 945.48 332.36 943.58 C333.44 942.63 333.44 942.63 334.54 941.66 C336.49 940.2 336.49 940.2 338.49 940.2 C338.49 939.54 338.49 938.88 338.49 938.2 C339.86 936.58 339.86 936.58 341.49 935.2 C342.15 935.2 342.81 935.2 343.49 935.2 C343.49 934.54 343.49 933.88 343.49 933.2 C344.86 931.58 344.86 931.58 346.49 930.2 C347.15 930.2 347.81 930.2 348.49 930.2 C348.49 929.54 348.49 928.88 348.49 928.2 C349.86 926.58 349.86 926.58 351.49 925.2 C352.15 925.2 352.81 925.2 353.49 925.2 C353.49 924.54 353.49 923.88 353.49 923.2 C354.86 921.58 354.86 921.58 356.49 920.2 C357.15 920.2 357.81 920.2 358.49 920.2 C358.49 919.54 358.49 918.88 358.49 918.2 C359.15 918.2 359.81 918.2 360.49 918.2 C360.82 917.21 361.15 916.22 361.49 915.2 C362.15 915.2 362.81 915.2 363.49 915.2 C363.89 914.34 363.89 914.34 364.3 913.45 C365.52 911.15 366.79 909.18 368.49 907.2 C369.15 907.2 369.81 907.2 370.49 907.2 C370.73 906.66 370.96 906.12 371.21 905.56 C372.83 902.57 374.84 900.09 376.99 897.45 C377.78 896.47 378.58 895.48 379.39 894.47 C380.43 893.35 380.43 893.35 381.49 892.2 C382.15 892.2 382.81 892.2 383.49 892.2 C383.74 891.48 383.99 890.75 384.25 890 C385.6 886.95 387.18 884.96 389.36 882.45 C393.47 877.56 397.24 872.49 400.93 867.27 C401.45 866.53 401.97 865.8 402.5 865.04 C404.75 861.84 406.8 858.74 408.49 855.2 C409.15 855.2 409.81 855.2 410.49 855.2 C410.72 854.54 410.95 853.87 411.19 853.18 C412.85 849.38 415 846.05 417.24 842.58 C421.25 836.24 425 829.84 428.49 823.2 C429.14 821.98 429.8 820.77 430.45 819.55 C437.78 805.91 444.87 792.15 450.5 777.71 C451.59 774.94 452.76 772.2 453.93 769.45 C456.25 763.91 458.29 758.3 460.28 752.62 C461.12 750.25 462 747.88 462.91 745.53 C464.92 740.2 466.47 734.73 468.05 729.27 C468.35 728.23 468.66 727.2 468.97 726.13 C470.33 721.45 471.62 716.78 472.64 712.01 C473.49 708.2 473.49 708.2 474.49 707.2 C474.82 705.61 475.1 704 475.36 702.39 C476.06 698.38 476.89 694.46 477.93 690.52 C480.61 679.99 482.65 669.42 483.28 658.56 C483.49 656.2 483.49 656.2 484.49 653.2 C484.69 651.5 484.85 649.8 484.99 648.09 C485.07 647.09 485.15 646.09 485.24 645.06 C485.32 644.01 485.4 642.97 485.49 641.89 C485.65 639.83 485.82 637.77 485.99 635.71 C486.06 634.8 486.13 633.89 486.21 632.95 C486.49 630.2 486.49 630.2 487 627.41 C487.48 624.25 487.62 621.29 487.63 618.1 C487.64 616.91 487.65 615.73 487.65 614.51 C487.65 613.23 487.66 611.96 487.66 610.65 C487.66 609.31 487.66 607.97 487.67 606.63 C487.67 603.82 487.67 601.01 487.67 598.2 C487.67 595.35 487.68 592.5 487.69 589.65 C487.77 574.7 487.69 560.02 485.49 545.2 C485.2 541.98 484.95 538.75 484.73 535.52 C484.56 533.05 484.56 533.05 483.49 530.2 C483.33 528.48 483.21 526.75 483.11 525.02 C482.72 519.79 481.96 514.72 480.99 509.58 C480.79 508.53 480.79 508.53 480.59 507.46 C479.88 503.72 479.88 503.72 478.49 500.2 C478.39 498.97 478.28 497.73 478.18 496.45 C477.63 491.01 476.1 485.95 474.52 480.73 C473.02 475.62 471.78 470.46 470.56 465.27 C468.95 458.52 467.24 452.08 464.49 445.7 C463.3 442.72 462.4 439.71 461.49 436.64 C460.14 432.16 458.6 427.99 456.61 423.77 C455.12 420.37 453.88 416.88 452.61 413.39 C450.4 407.35 447.84 401.66 444.86 395.95 C443.15 392.53 441.8 389.03 440.43 385.46 C439.52 383.27 438.46 381.3 437.24 379.27 C435.49 376.2 435.49 376.2 435.49 373.2 C434.83 373.2 434.17 373.2 433.49 373.2 C433.21 372.47 432.94 371.74 432.66 370.99 C431.54 368.33 430.26 366.03 428.74 363.58 C426.68 360.21 424.75 356.83 422.93 353.33 C419.89 347.71 416.46 342.37 412.99 337.02 C412.17 335.75 412.17 335.75 411.33 334.46 C408.27 329.77 405.09 325.27 401.57 320.9 C400.49 319.2 400.49 319.2 400.49 316.2 C399.83 316.2 399.17 316.2 398.49 316.2 C397.04 314.47 395.68 312.66 394.36 310.83 C393.64 309.83 392.91 308.83 392.17 307.8 C390.49 305.2 390.49 305.2 390.49 303.2 C389.83 303.2 389.17 303.2 388.49 303.2 C387.3 301.71 386.19 300.15 385.11 298.58 C381.19 293.01 376.88 287.89 372.35 282.8 C368.49 278.41 368.49 278.41 368.49 276.2 C367.5 275.87 366.51 275.54 365.49 275.2 C365.49 274.54 365.49 273.88 365.49 273.2 C364.83 273.2 364.17 273.2 363.49 273.2 C363.49 272.54 363.49 271.88 363.49 271.2 C362.83 271.2 362.17 271.2 361.49 271.2 C360.05 269.74 360.05 269.74 358.37 267.72 C354.57 263.25 350.52 259.09 346.36 254.95 C345.33 253.91 345.33 253.91 344.27 252.85 C341.43 250.02 338.65 247.33 335.5 244.84 C334.5 244.03 334.5 244.03 333.49 243.2 C333.49 242.54 333.49 241.88 333.49 241.2 C332.62 240.8 332.62 240.8 331.74 240.39 C329.43 239.17 327.47 237.9 325.49 236.2 C325.49 235.54 325.49 234.88 325.49 234.2 C324.92 233.94 324.34 233.67 323.75 233.39 C321.41 232.16 319.36 230.78 317.24 229.2 C316.18 228.43 316.18 228.43 315.1 227.64 C314.57 227.17 314.04 226.69 313.49 226.2 C313.49 225.54 313.49 224.88 313.49 224.2 C312.68 223.83 312.68 223.83 311.86 223.45 C308.91 221.9 306.19 220.17 303.49 218.2 C303.49 217.54 303.49 216.88 303.49 216.2 C302.49 215.89 302.49 215.89 301.48 215.57 C297.41 213.71 294.14 211.11 290.61 208.39 C289.24 207.34 287.87 206.29 286.5 205.25 C285.83 204.74 285.16 204.23 284.47 203.7 C279.92 200.27 275.35 197.06 270.36 194.29 C268.25 193.06 266.25 191.71 264.24 190.33 C256.1 184.84 247.29 180.52 238.49 176.2 C238.49 175.54 238.49 174.88 238.49 174.2 C237.8 174.11 237.12 174.02 236.41 173.93 C232.83 173.04 229.91 171.39 226.74 169.58 C220.55 166.16 214.26 163.33 207.7 160.72 C203.28 158.95 198.97 157.06 194.68 155.02 C189.59 152.62 184.47 150.76 179.11 149.07 C176.49 148.2 176.49 148.2 173.11 146.7 C167.4 144.34 161.44 142.86 155.49 141.2 C150.61 139.79 145.78 138.31 140.99 136.64 C136.87 135.24 132.74 134.39 128.46 133.63 C126.49 133.2 126.49 133.2 125.49 132.2 C122.03 131.54 118.57 130.96 115.1 130.4 C114.36 130.27 113.62 130.15 112.86 130.02 C112.19 129.91 111.52 129.8 110.83 129.69 C108.49 129.2 108.49 129.2 105.16 128.22 C101.54 127.22 98.08 126.64 94.35 126.17 C93.7 126.08 93.05 126 92.38 125.91 C90.33 125.65 88.29 125.4 86.24 125.14 C84.18 124.88 82.11 124.62 80.05 124.36 C78.19 124.12 76.33 123.88 74.47 123.65 C71.49 123.2 71.49 123.2 68.49 122.2 C67.09 122.07 65.69 121.98 64.29 121.92 C63.47 121.88 62.65 121.85 61.81 121.81 C60.96 121.77 60.11 121.74 59.24 121.7 C57.57 121.63 55.89 121.56 54.22 121.48 C53.48 121.45 52.74 121.42 51.98 121.39 C49.49 121.2 49.49 121.2 46.43 120.7 C41.17 120.04 35.98 120.04 30.69 120.04 C28.96 120.03 28.96 120.03 27.21 120.03 C24.77 120.02 22.33 120.02 19.89 120.02 C16.25 120.02 12.62 120 8.98 119.98 C-27.06 118.43 -27.06 118.43 -61.51 126.2 C-63.05 126.38 -64.59 126.52 -66.14 126.64 C-69.91 126.99 -73.41 127.6 -77.07 128.61 C-79.74 129.26 -82.42 129.74 -85.12 130.21 C-92.16 131.45 -98.87 133.08 -105.68 135.3 C-108.04 136.05 -110.36 136.7 -112.76 137.27 C-116.3 138.15 -119.7 139.22 -123.14 140.42 C-125.03 141.04 -126.94 141.61 -128.85 142.16 C-140.37 145.45 -151.44 149.67 -162.51 154.2 C-164.26 154.89 -166.01 155.58 -167.76 156.27 C-172.15 158.02 -176.45 159.95 -180.74 161.93 C-182.53 162.75 -184.32 163.56 -186.12 164.35 C-192.21 167.04 -198.06 170.03 -203.9 173.2 C-207.64 175.23 -211.42 177.13 -215.26 178.95 C-222.5 182.52 -229.21 186.94 -236 191.3 C-236.75 191.78 -237.5 192.27 -238.27 192.76 C-239.78 193.73 -241.29 194.71 -242.8 195.69 C-243.51 196.14 -244.23 196.6 -244.96 197.07 C-245.6 197.48 -246.24 197.9 -246.89 198.32 C-248.51 199.2 -248.51 199.2 -250.51 199.2 C-250.51 199.86 -250.51 200.52 -250.51 201.2 C-252.6 202.68 -252.6 202.68 -255.45 204.39 C-260.77 207.68 -265.63 211.3 -270.51 215.2 C-271.99 216.36 -273.46 217.5 -274.95 218.64 C-275.59 219.13 -276.23 219.63 -276.88 220.14 C-278.51 221.2 -278.51 221.2 -280.51 221.2 C-280.51 221.86 -280.51 222.52 -280.51 223.2 C-282.19 224.71 -282.19 224.71 -284.39 226.33 C-285.11 226.87 -285.83 227.41 -286.57 227.96 C-288.51 229.2 -288.51 229.2 -290.51 229.2 C-290.51 229.86 -290.51 230.52 -290.51 231.2 C-292.21 232.72 -293.97 234.17 -295.76 235.58 C-298.56 237.8 -301.25 239.93 -303.75 242.49 C-305.51 244.2 -305.51 244.2 -307.51 244.2 C-307.51 244.86 -307.51 245.52 -307.51 246.2 C-308.89 247.83 -308.89 247.83 -310.51 249.2 C-311.17 249.2 -311.83 249.2 -312.51 249.2 C-312.51 249.86 -312.51 250.52 -312.51 251.2 C-313.95 252.61 -313.95 252.61 -315.95 254.27 C-324.24 260.89 -324.24 260.89 -330.51 269.2 C-331.17 269.2 -331.83 269.2 -332.51 269.2 C-332.74 269.75 -332.96 270.29 -333.2 270.85 C-334.92 273.94 -337.16 276.25 -339.57 278.83 C-342.93 282.25 -342.93 282.25 -345.51 286.2 C-346.17 286.2 -346.83 286.2 -347.51 286.2 C-347.78 286.78 -348.05 287.35 -348.32 287.94 C-349.55 290.28 -350.94 292.33 -352.51 294.45 C-353.29 295.51 -353.29 295.51 -354.07 296.59 C-354.55 297.12 -355.02 297.66 -355.51 298.2 C-356.17 298.2 -356.83 298.2 -357.51 298.2 C-357.78 298.77 -358.05 299.33 -358.32 299.91 C-359.59 302.36 -361 304.64 -362.51 306.95 C-363.03 307.75 -363.54 308.55 -364.07 309.38 C-364.79 310.28 -364.79 310.28 -365.51 311.2 C-366.17 311.2 -366.83 311.2 -367.51 311.2 C-367.82 311.99 -368.13 312.77 -368.45 313.58 C-369.51 316.2 -369.51 316.2 -370.51 318.2 C-371.17 318.2 -371.83 318.2 -372.51 318.2 C-372.75 318.89 -372.99 319.58 -373.24 320.29 C-374.75 323.74 -376.75 326.69 -378.89 329.77 C-383.09 335.94 -387.04 342.24 -390.89 348.64 C-391.39 349.47 -391.89 350.3 -392.4 351.15 C-395.34 356.07 -398.01 361.05 -400.51 366.2 C-401.17 366.2 -401.83 366.2 -402.51 366.2 C-402.62 366.92 -402.74 367.63 -402.85 368.37 C-403.56 371.39 -404.64 373.77 -406.07 376.52 C-406.53 377.4 -406.98 378.28 -407.45 379.19 C-407.8 379.86 -408.15 380.52 -408.51 381.2 C-409.17 381.2 -409.83 381.2 -410.51 381.2 C-410.62 381.91 -410.73 382.61 -410.85 383.34 C-411.58 386.5 -412.73 389.09 -414.14 392.02 C-414.68 393.16 -415.21 394.31 -415.77 395.49 C-416.05 396.09 -416.34 396.7 -416.63 397.32 C-421.39 407.49 -425.53 417.75 -429.17 428.37 C-430.22 431.43 -431.38 434.41 -432.64 437.39 C-435.14 443.5 -436.76 449.85 -438.51 456.2 C-439.23 458.75 -439.97 461.29 -440.7 463.83 C-441.69 467.28 -442.67 470.72 -443.51 474.2 C-441.2 473.54 -438.89 472.88 -436.51 472.2 C-436.51 471.54 -436.51 470.88 -436.51 470.2 C-434.25 468.51 -434.25 468.51 -431.26 466.64 C-430.29 466.02 -429.31 465.4 -428.31 464.76 C-425.94 463.44 -424.15 462.66 -421.51 462.2 C-421.51 461.54 -421.51 460.88 -421.51 460.2 C-419.42 458.69 -419.42 458.69 -416.57 456.95 C-412.06 454.17 -407.65 451.29 -403.29 448.27 C-401.51 447.2 -401.51 447.2 -399.51 447.2 C-399.51 446.54 -399.51 445.88 -399.51 445.2 C-398.52 445.2 -397.53 445.2 -396.51 445.2 C-396.51 444.54 -396.51 443.88 -396.51 443.2 C-394.39 441.7 -394.39 441.7 -391.64 440.08 C-390.73 439.54 -389.83 439 -388.89 438.45 C-386.51 437.2 -386.51 437.2 -384.51 437.2 C-384.51 436.54 -384.51 435.88 -384.51 435.2 C-383.52 435.2 -382.53 435.2 -381.51 435.2 C-381.51 434.54 -381.51 433.88 -381.51 433.2 C-379.25 431.51 -379.25 431.51 -376.26 429.64 C-375.29 429.02 -374.31 428.4 -373.31 427.76 C-370.94 426.44 -369.15 425.66 -366.51 425.2 C-366.51 424.54 -366.51 423.88 -366.51 423.2 C-364.62 422.24 -362.72 421.28 -360.82 420.33 C-359.77 419.79 -358.71 419.26 -357.62 418.71 C-352.08 416.02 -347.57 414.81 -341.39 414.52 C-340.63 414.48 -339.87 414.44 -339.09 414.4 C-322.55 413.72 -310.36 418.11 -297.58 428.82 C-290.55 435.35 -285.15 443.97 -282.51 453.2 C-282.31 453.87 -282.1 454.55 -281.89 455.24 C-278.23 469.05 -280.9 482.75 -287.51 495.2 C-289.36 498.31 -291.2 501.41 -293.51 504.2 C-294.17 504.2 -294.83 504.2 -295.51 504.2 C-295.78 504.84 -296.05 505.48 -296.32 506.14 C-297.51 508.2 -297.51 508.2 -300.51 509.2 C-300.51 509.86 -300.51 510.52 -300.51 511.2 C-302.67 512.92 -304.82 514.51 -307.07 516.08 C-307.68 516.51 -308.29 516.95 -308.92 517.39 C-311.94 519.52 -314.98 521.51 -318.21 523.32 C-321.67 525.29 -324.63 527.54 -327.71 530.03 C-329.51 531.2 -329.51 531.2 -332.51 531.2 C-332.51 531.86 -332.51 532.52 -332.51 533.2 C-334.64 534.72 -334.64 534.72 -337.51 536.45 C-341.05 538.64 -344.47 540.84 -347.76 543.39 C-350.6 545.57 -353.49 547.37 -356.63 549.1 C-359.75 550.93 -362.65 553.07 -365.61 555.17 C-370.13 558.34 -374.73 561.38 -379.34 564.43 C-382.37 566.44 -385.39 568.47 -388.41 570.51 C-389.22 571.06 -390.04 571.61 -390.88 572.18 C-392.49 573.27 -394.1 574.35 -395.7 575.44 C-396.43 575.93 -397.16 576.42 -397.91 576.93 C-398.55 577.37 -399.2 577.81 -399.87 578.26 C-401.51 579.2 -401.51 579.2 -403.51 579.2 C-403.51 579.86 -403.51 580.52 -403.51 581.2 C-405.39 582.58 -405.39 582.58 -408.07 584.2 C-412.82 587.14 -417.5 590.16 -422.14 593.27 C-423.1 593.91 -423.1 593.91 -424.07 594.56 C-426.86 596.42 -429.63 598.29 -432.4 600.18 C-433.6 600.99 -433.6 600.99 -434.82 601.83 C-435.5 602.29 -436.18 602.76 -436.88 603.24 C-438.51 604.2 -438.51 604.2 -440.51 604.2 C-440.51 604.86 -440.51 605.52 -440.51 606.2 C-442.06 607.07 -442.06 607.07 -443.64 607.95 C-446.11 609.36 -448.48 610.84 -450.82 612.45 C-453.51 614.2 -453.51 614.2 -455.51 614.2 C-455.51 614.86 -455.51 615.52 -455.51 616.2 C-457.09 617.07 -457.09 617.07 -458.7 617.95 C-461.13 619.33 -463.08 620.67 -465.26 622.45 C-467.51 624.2 -467.51 624.2 -470.51 624.2 C-470.51 624.86 -470.51 625.52 -470.51 626.2 C-485.25 637.26 -499.23 642.71 -517.51 642.2 C-518.65 642.23 -518.65 642.23 -519.8 642.26 C-529.4 642.03 -538.7 636.41 -546.51 631.2 C-546.51 630.54 -546.51 629.88 -546.51 629.2 C-547.09 628.96 -547.66 628.72 -548.25 628.47 C-556.49 623.86 -561.72 614.16 -566.57 606.3 C-568.38 603.28 -568.38 603.28 -570.27 600.98 C-571.51 599.2 -571.51 599.2 -571.51 596.2 C-572.17 596.2 -572.83 596.2 -573.51 596.2 C-575.2 593.94 -575.2 593.94 -577.07 590.95 C-577.69 589.98 -578.31 589 -578.95 588 C-580.27 585.63 -581.05 583.84 -581.51 581.2 C-582.17 581.2 -582.83 581.2 -583.51 581.2 C-585.02 579.34 -585.02 579.34 -586.64 576.89 C-587.44 575.69 -587.44 575.69 -588.27 574.46 C-589.51 572.2 -589.51 572.2 -589.51 569.2 C-590.17 569.2 -590.83 569.2 -591.51 569.2 C-591.51 568.21 -591.51 567.22 -591.51 566.2 C-592.17 566.2 -592.83 566.2 -593.51 566.2 C-595.1 563.88 -596.57 561.55 -598.01 559.14 C-601.96 552.66 -606.05 546.31 -610.38 540.08 C-612.34 537.19 -614.02 534.71 -614.51 531.2 C-615.17 531.2 -615.83 531.2 -616.51 531.2 C-618.2 528.94 -618.2 528.94 -620.07 525.95 C-620.69 524.98 -621.31 524 -621.95 523 C-623.27 520.63 -624.05 518.84 -624.51 516.2 C-625.17 516.2 -625.83 516.2 -626.51 516.2 C-627.09 515.17 -627.67 514.14 -628.26 513.08 C-629.67 510.6 -631.14 508.23 -632.76 505.89 C-634.51 503.2 -634.51 503.2 -634.51 501.2 C-635.17 501.2 -635.83 501.2 -636.51 501.2 C-637.01 500.3 -637.5 499.39 -638.01 498.45 C-640.51 494.08 -643.33 489.93 -646.14 485.75 C-648.96 481.54 -651.74 477.32 -654.51 473.08 C-655 472.33 -655.5 471.58 -656.01 470.81 C-656.46 470.12 -656.92 469.42 -657.39 468.7 C-658 467.76 -658 467.76 -658.63 466.8 C-659.51 465.2 -659.51 465.2 -659.51 463.2 C-660.17 463.2 -660.83 463.2 -661.51 463.2 C-662.09 462.17 -662.67 461.14 -663.26 460.08 C-664.67 457.6 -666.14 455.23 -667.76 452.89 C-669.51 450.2 -669.51 450.2 -669.51 448.2 C-670.17 448.2 -670.83 448.2 -671.51 448.2 C-672.05 447.25 -672.58 446.31 -673.14 445.33 C-675.4 441.35 -677.77 437.44 -680.14 433.54 C-680.6 432.77 -681.05 432 -681.51 431.2 C-682.04 430.39 -682.04 430.39 -682.57 429.57 C-683.94 426.12 -683.86 422.72 -683.88 419.07 C-683.89 418.28 -683.9 417.49 -683.91 416.67 C-683.92 414.99 -683.93 413.32 -683.94 411.64 C-683.95 409.11 -684 406.57 -684.05 404.04 C-684.14 395.02 -683.9 387.84 -678.51 380.2 C-677.7 379.01 -677.7 379.01 -676.86 377.8 C-672.64 371.86 -667.37 366.54 -661.51 362.2 C-660.52 362.2 -659.53 362.2 -658.51 362.2 C-658.51 361.54 -658.51 360.88 -658.51 360.2 C-657.73 359.93 -656.95 359.65 -656.14 359.36 C-655.13 359 -654.12 358.64 -653.07 358.27 C-652.06 357.91 -651.06 357.55 -650.02 357.18 C-647.61 356.43 -647.61 356.43 -646.51 355.2 C-639.49 354.17 -632.6 354.01 -625.51 354.2 C-624.75 354.21 -623.99 354.21 -623.2 354.22 C-612.33 354.78 -602.43 361.13 -594.51 368.2 C-593.87 368.77 -593.24 369.34 -592.58 369.92 C-588.44 373.83 -585.06 378.09 -582.51 383.2 C-582.51 383.86 -582.51 384.52 -582.51 385.2 C-581.85 385.2 -581.19 385.2 -580.51 385.2 C-580.02 386.11 -579.52 387.02 -579.01 387.95 C-576.14 392.97 -572.88 397.72 -569.66 402.5 C-562.14 413.65 -554.79 424.9 -547.51 436.2 C-546.72 433.68 -545.93 431.16 -545.14 428.64 C-544.91 427.94 -544.69 427.23 -544.46 426.51 C-542.73 420.97 -541.11 415.41 -539.58 409.81 C-537.9 403.74 -536.09 397.9 -533.64 392.1 C-531.81 387.41 -530.31 382.6 -528.79 377.8 C-527.34 373.3 -525.59 369.19 -523.41 365 C-522.27 362.71 -521.44 360.38 -520.64 357.95 C-518.81 352.75 -516.45 347.97 -513.93 343.08 C-512.72 340.62 -511.71 338.21 -510.76 335.64 C-507.79 327.93 -503.63 320.73 -499.72 313.46 C-498.68 311.51 -497.65 309.57 -496.62 307.61 C-493.11 300.98 -489.37 294.53 -485.44 288.14 C-483.83 285.51 -482.49 283.14 -481.51 280.2 C-480.85 280.2 -480.19 280.2 -479.51 280.2 C-479.33 279.33 -479.33 279.33 -479.15 278.45 C-478.04 274.56 -475.72 271.35 -473.57 267.95 C-473.12 267.21 -472.66 266.46 -472.19 265.7 C-471.75 264.99 -471.31 264.29 -470.86 263.56 C-470.46 262.92 -470.06 262.27 -469.64 261.61 C-469.08 260.91 -469.08 260.91 -468.51 260.2 C-467.85 260.2 -467.19 260.2 -466.51 260.2 C-466.51 259.21 -466.51 258.22 -466.51 257.2 C-465.85 257.2 -465.19 257.2 -464.51 257.2 C-464.41 256.63 -464.3 256.06 -464.19 255.47 C-463.41 252.85 -462.26 251.18 -460.64 248.98 C-460.07 248.19 -459.49 247.41 -458.9 246.6 C-458 245.38 -458 245.38 -457.07 244.14 C-455.89 242.52 -454.7 240.91 -453.52 239.29 C-452.99 238.58 -452.46 237.87 -451.92 237.13 C-450.74 235.52 -449.62 233.86 -448.51 232.2 C-447.85 232.2 -447.19 232.2 -446.51 232.2 C-446.2 231.42 -445.89 230.64 -445.57 229.83 C-444.51 227.2 -444.51 227.2 -443.51 225.2 C-442.85 225.2 -442.19 225.2 -441.51 225.2 C-441.24 224.62 -440.96 224.03 -440.68 223.42 C-439.55 221.27 -438.32 219.55 -436.79 217.66 C-436.25 217.01 -435.72 216.35 -435.17 215.67 C-434.6 214.98 -434.03 214.29 -433.45 213.58 C-432.87 212.87 -432.29 212.16 -431.69 211.43 C-427.64 206.49 -423.47 201.7 -419.12 197.02 C-417.45 195.29 -417.45 195.29 -416.51 193.2 C-415.85 193.2 -415.19 193.2 -414.51 193.2 C-414.18 192.21 -413.85 191.22 -413.51 190.2 C-412.85 190.2 -412.19 190.2 -411.51 190.2 C-411.26 189.62 -411 189.03 -410.73 188.43 C-409.41 186.01 -407.95 184.47 -405.95 182.58 C-403.37 180.16 -403.37 180.16 -401.51 177.2 C-400.85 177.2 -400.19 177.2 -399.51 177.2 C-399.51 176.54 -399.51 175.88 -399.51 175.2 C-398.14 173.58 -398.14 173.58 -396.51 172.2 C-395.85 172.2 -395.19 172.2 -394.51 172.2 C-394.51 171.54 -394.51 170.88 -394.51 170.2 C-393.14 168.58 -393.14 168.58 -391.51 167.2 C-390.85 167.2 -390.19 167.2 -389.51 167.2 C-389.51 166.54 -389.51 165.88 -389.51 165.2 C-387.97 163.69 -387.97 163.69 -385.89 161.95 C-383.17 159.66 -380.6 157.33 -378.14 154.77 C-375.51 152.2 -375.51 152.2 -373.51 152.2 C-373.51 151.54 -373.51 150.88 -373.51 150.2 C-372.07 148.73 -372.07 148.73 -370.05 147.03 C-368.96 146.09 -368.96 146.09 -367.84 145.14 C-367.07 144.5 -366.3 143.86 -365.51 143.2 C-364.79 142.6 -364.08 142 -363.34 141.39 C-361.17 139.59 -359 137.8 -356.82 136.02 C-356.09 135.41 -355.36 134.81 -354.6 134.19 C-353.2 133.03 -351.79 131.88 -350.38 130.73 C-348.78 129.43 -347.2 128.1 -345.62 126.78 C-343.51 125.2 -343.51 125.2 -341.51 125.2 C-341.51 124.54 -341.51 123.88 -341.51 123.2 C-338.95 120.91 -338.03 120.2 -334.51 120.2 C-334.51 119.54 -334.51 118.88 -334.51 118.2 C-332.97 116.86 -332.97 116.86 -330.82 115.34 C-330.04 114.78 -329.26 114.22 -328.46 113.65 C-327.63 113.07 -326.8 112.49 -325.95 111.89 C-325.15 111.32 -324.35 110.75 -323.53 110.17 C-321.94 109.04 -320.36 107.92 -318.77 106.8 C-317.32 105.78 -315.88 104.73 -314.47 103.67 C-309.82 100.2 -309.82 100.2 -306.51 100.2 C-306.51 99.54 -306.51 98.88 -306.51 98.2 C-304.65 96.7 -304.65 96.7 -302.2 95.08 C-301.4 94.54 -300.6 94 -299.77 93.45 C-297.51 92.2 -297.51 92.2 -294.51 92.2 C-294.51 91.54 -294.51 90.88 -294.51 90.2 C-291.61 88.16 -290.11 87.2 -286.51 87.2 C-286.51 86.54 -286.51 85.88 -286.51 85.2 C-285.75 84.84 -284.99 84.48 -284.2 84.1 C-279.36 81.74 -274.63 79.42 -270.2 76.33 C-263.99 72.02 -257.22 68.66 -250.51 65.2 C-249.43 64.63 -248.35 64.06 -247.24 63.46 C-244.51 62.2 -244.51 62.2 -241.51 62.2 C-241.51 61.54 -241.51 60.88 -241.51 60.2 C-240.96 60 -240.42 59.79 -239.85 59.57 C-234.66 57.56 -229.61 55.34 -224.57 52.95 C-212.45 47.21 -200.01 42.08 -187.51 37.2 C-186.51 36.8 -185.51 36.41 -184.48 36 C-177.88 33.4 -171.25 31.14 -164.45 29.11 C-161.98 28.35 -159.6 27.52 -157.2 26.58 C-154.08 25.42 -151.04 24.57 -147.82 23.78 C-145.35 23.16 -142.9 22.49 -140.45 21.8 C-130.88 19.13 -121.39 16.59 -111.61 14.84 C-108.52 14.28 -108.52 14.28 -105.69 13.22 C-101.56 11.9 -97.43 11.32 -93.14 10.7 C-88.45 10.03 -83.83 9.34 -79.25 8.14 C-76.14 7.36 -73.32 6.88 -70.14 6.64 C-66.69 6.41 -66.69 6.41 -63.51 5.2 C-61.22 5.02 -58.93 4.88 -56.64 4.77 C-51.96 4.5 -47.44 4.09 -42.82 3.2 C-36.42 2.02 -30.03 1.78 -23.54 1.54 C-22.72 1.51 -21.9 1.48 -21.05 1.45 C-20.32 1.43 -19.59 1.4 -18.84 1.38 C-16.45 1.24 -16.45 1.24 -13.89 0.7 C-9.25 0.02 -4.68 0.02 0 0 Z " fill="#000000" transform="translate(683.51171875,51.796875)"/>
<path d="M0 0 C13.58 8.93 21.46 20.63 25.84 36.25 C26.68 40.45 26.52 44.69 26.5 48.95 C26.5 50.01 26.5 51.06 26.5 52.15 C26.51 55.68 26.5 59.21 26.48 62.74 C26.48 65.27 26.48 67.81 26.49 70.34 C26.49 75.79 26.48 81.24 26.47 86.69 C26.45 94.57 26.45 102.45 26.45 110.33 C26.44 123.12 26.43 135.9 26.41 148.69 C26.39 161.1 26.38 173.52 26.37 185.94 C26.37 186.7 26.37 187.47 26.37 188.26 C26.36 192.1 26.36 195.94 26.36 199.78 C26.34 231.64 26.3 263.5 26.26 295.36 C27.25 295.69 28.24 296.02 29.26 296.36 C29.26 297.02 29.26 297.68 29.26 298.36 C29.92 298.36 30.58 298.36 31.26 298.36 C31.26 299.02 31.26 299.68 31.26 300.36 C32.25 300.69 33.24 301.02 34.26 301.36 C34.26 302.02 34.26 302.68 34.26 303.36 C34.92 303.36 35.58 303.36 36.26 303.36 C36.26 304.02 36.26 304.68 36.26 305.36 C37.25 305.69 38.24 306.02 39.26 306.36 C39.26 307.02 39.26 307.68 39.26 308.36 C39.92 308.36 40.58 308.36 41.26 308.36 C41.26 309.02 41.26 309.68 41.26 310.36 C42.25 310.69 43.24 311.02 44.26 311.36 C44.26 312.02 44.26 312.68 44.26 313.36 C44.92 313.36 45.58 313.36 46.26 313.36 C46.26 314.02 46.26 314.68 46.26 315.36 C47.25 315.69 48.24 316.02 49.26 316.36 C49.26 317.02 49.26 317.68 49.26 318.36 C49.92 318.36 50.58 318.36 51.26 318.36 C51.26 319.02 51.26 319.68 51.26 320.36 C52.25 320.69 53.24 321.02 54.26 321.36 C54.26 322.02 54.26 322.68 54.26 323.36 C54.92 323.36 55.58 323.36 56.26 323.36 C57.81 324.93 57.81 324.93 59.57 327.04 C62.34 330.3 65.19 333.37 68.26 336.36 C73.26 341.36 73.26 341.36 75.46 343.56 C78.81 346.91 82.17 350.25 85.53 353.59 C92.76 360.8 99.99 368 107.22 375.22 C111.59 379.58 115.97 383.94 120.34 388.29 C124.58 392.51 128.81 396.73 133.04 400.95 C134.66 402.56 136.27 404.17 137.89 405.78 C140.14 408.02 142.39 410.26 144.64 412.51 C145.31 413.17 145.99 413.84 146.68 414.53 C147.29 415.14 147.89 415.75 148.52 416.38 C149.05 416.91 149.58 417.44 150.13 417.98 C151.26 419.36 151.26 419.36 151.26 421.36 C151.92 421.36 152.58 421.36 153.26 421.36 C153.26 422.02 153.26 422.68 153.26 423.36 C154.25 423.69 155.24 424.02 156.26 424.36 C156.26 425.02 156.26 425.68 156.26 426.36 C156.92 426.36 157.58 426.36 158.26 426.36 C158.26 427.02 158.26 427.68 158.26 428.36 C159.25 428.69 160.24 429.02 161.26 429.36 C161.26 430.02 161.26 430.68 161.26 431.36 C161.92 431.36 162.58 431.36 163.26 431.36 C164.84 432.96 164.84 432.96 166.63 435.11 C168.6 437.42 170.52 439.61 172.7 441.73 C174.26 443.36 174.26 443.36 174.26 445.36 C174.92 445.36 175.58 445.36 176.26 445.36 C176.26 446.35 176.26 447.34 176.26 448.36 C176.92 448.36 177.58 448.36 178.26 448.36 C178.59 450.01 178.92 451.66 179.26 453.36 C179.92 453.36 180.58 453.36 181.26 453.36 C187.25 469.05 189.06 484.21 182.12 499.93 C179.65 505.14 176.87 509.86 173.26 514.36 C172.6 514.36 171.94 514.36 171.26 514.36 C170.93 515.35 170.6 516.34 170.26 517.36 C169.6 517.36 168.94 517.36 168.26 517.36 C168.26 518.02 168.26 518.68 168.26 519.36 C155.27 529.8 140.79 533.61 124.26 532.36 C113.84 530.93 103.25 526.27 95.26 519.36 C95.26 518.7 95.26 518.04 95.26 517.36 C94.27 517.03 93.28 516.7 92.26 516.36 C92.26 515.7 92.26 515.04 92.26 514.36 C91.6 514.36 90.94 514.36 90.26 514.36 C90.26 513.7 90.26 513.04 90.26 512.36 C89.27 512.03 88.28 511.7 87.26 511.36 C87.26 510.7 87.26 510.04 87.26 509.36 C86.6 509.36 85.94 509.36 85.26 509.36 C85.26 508.7 85.26 508.04 85.26 507.36 C84.27 507.03 83.28 506.7 82.26 506.36 C82.26 505.7 82.26 505.04 82.26 504.36 C81.6 504.36 80.94 504.36 80.26 504.36 C80.26 503.7 80.26 503.04 80.26 502.36 C79.27 502.03 78.28 501.7 77.26 501.36 C77.26 500.7 77.26 500.04 77.26 499.36 C76.6 499.36 75.94 499.36 75.26 499.36 C75.26 498.7 75.26 498.04 75.26 497.36 C74.27 497.03 73.28 496.7 72.26 496.36 C72.26 495.7 72.26 495.04 72.26 494.36 C71.6 494.36 70.94 494.36 70.26 494.36 C68.71 492.78 68.71 492.78 66.95 490.67 C64.17 487.41 61.32 484.34 58.26 481.36 C53.26 476.36 53.26 476.36 51.06 474.15 C47.7 470.8 44.35 467.46 40.99 464.12 C33.75 456.91 26.52 449.71 19.29 442.49 C14.92 438.13 10.55 433.78 6.17 429.42 C1.93 425.2 -2.3 420.98 -6.53 416.76 C-8.14 415.15 -9.76 413.54 -11.38 411.93 C-13.63 409.69 -15.88 407.45 -18.12 405.2 C-18.8 404.54 -19.47 403.87 -20.17 403.18 C-21.08 402.27 -21.08 402.27 -22 401.33 C-22.54 400.8 -23.07 400.27 -23.62 399.73 C-24.74 398.36 -24.74 398.36 -24.74 396.36 C-25.4 396.36 -26.06 396.36 -26.74 396.36 C-26.74 395.7 -26.74 395.04 -26.74 394.36 C-27.73 394.03 -28.72 393.7 -29.74 393.36 C-29.74 392.7 -29.74 392.04 -29.74 391.36 C-30.4 391.36 -31.06 391.36 -31.74 391.36 C-31.74 390.7 -31.74 390.04 -31.74 389.36 C-32.73 389.03 -33.72 388.7 -34.74 388.36 C-34.74 387.7 -34.74 387.04 -34.74 386.36 C-35.4 386.36 -36.06 386.36 -36.74 386.36 C-36.74 385.7 -36.74 385.04 -36.74 384.36 C-37.73 384.03 -38.72 383.7 -39.74 383.36 C-39.74 382.7 -39.74 382.04 -39.74 381.36 C-40.4 381.36 -41.06 381.36 -41.74 381.36 C-43.09 379.98 -43.09 379.98 -44.7 378.03 C-49.76 372.07 -55.36 366.67 -60.93 361.19 C-62.32 359.81 -63.71 358.44 -65.1 357.06 C-66.33 355.85 -66.33 355.85 -67.58 354.61 C-72.74 349.22 -72.74 349.22 -72.74 346.36 C-73.4 346.36 -74.06 346.36 -74.74 346.36 C-75.53 344.93 -76.29 343.49 -77.05 342.04 C-77.48 341.24 -77.91 340.44 -78.36 339.62 C-82.08 330.86 -83.18 322.62 -83.12 313.17 C-83.13 312 -83.13 310.82 -83.14 309.6 C-83.15 306.37 -83.14 303.13 -83.13 299.89 C-83.13 296.39 -83.14 292.88 -83.15 289.38 C-83.16 282.53 -83.16 275.68 -83.15 268.83 C-83.14 263.25 -83.14 257.68 -83.14 252.11 C-83.14 251.32 -83.14 250.52 -83.15 249.7 C-83.15 248.09 -83.15 246.47 -83.15 244.86 C-83.16 229.74 -83.15 214.62 -83.13 199.5 C-83.12 186.54 -83.12 173.59 -83.13 160.63 C-83.15 145.56 -83.16 130.49 -83.15 115.42 C-83.15 113.82 -83.14 112.21 -83.14 110.6 C-83.14 109.81 -83.14 109.02 -83.14 108.2 C-83.14 102.64 -83.14 97.08 -83.15 91.52 C-83.16 84.74 -83.16 77.95 -83.14 71.17 C-83.13 67.72 -83.13 64.26 -83.14 60.8 C-83.15 57.05 -83.14 53.29 -83.12 49.54 C-83.13 48.46 -83.14 47.38 -83.14 46.26 C-83.07 36.42 -81.19 27.77 -75.8 19.48 C-75.14 18.43 -74.47 17.38 -73.78 16.3 C-70.48 11.53 -67.21 7.67 -62.68 4.04 C-61.82 3.35 -60.97 2.65 -60.08 1.93 C-57.74 0.36 -57.74 0.36 -54.74 0.36 C-54.74 -0.3 -54.74 -0.96 -54.74 -1.64 C-38.43 -10.89 -15.74 -9.44 0 0 Z " fill="#000000" transform="translate(721.7421875,323.64453125)"/>
</svg>
